<svg xmlns="http://www.w3.org/2000/svg" xmlns:xlink="http://www.w3.org/1999/xlink" viewBox="0 0 600 600"><defs><style>.cls-1{fill:none;}.cls-2{clip-path:url(#clip-path);}.cls-3,.cls-7{fill:#ed1e24;}.cls-3,.cls-4,.cls-5,.cls-6{fill-rule:evenodd;}.cls-4{fill:#049998;}.cls-5{fill:#f37321;}.cls-6{fill:#42b649;}.cls-8{fill:#231f20;}</style><clipPath id="clip-path"><rect class="cls-1" x="90.5" y="10.34" width="419" height="419"/></clipPath></defs><g id="New_Icon" data-name="New Icon"><g class="cls-2"><g class="cls-2"><path class="cls-3" d="M300.41,102.65a49.94,49.94,0,1,1-50.08,49.94,50,50,0,0,1,50.08-49.94"/><path class="cls-4" d="M167.87,207.32a29,29,0,1,1-15.26,38.05,29.12,29.12,0,0,1,15.26-38.05"/><path class="cls-5" d="M430.88,205.45a29,29,0,1,1-38.16,15.22,29,29,0,0,1,38.16-15.22"/><path class="cls-5" d="M362.42,296.49c-.46-1.73-1.27-4.8-1.68-6.62-.58-2.62-1.07-5.31-1.53-7.92-.69-3.89-.73-6.1-1.35-11.5-.39-3.42-.57-7-.89-10.54a85.43,85.43,0,0,1,0-14.32c.14-1.9.12-4.13.31-6.19.27-2.82.91-7.58,1.31-10.7.34-2.66.59-5.33,1.08-8,.52-2.87,1.33-6.15,2.07-9.2.87-3.57,2-8.37,3.15-12.25,1.11-3.73,2.36-7.42,3.8-11,1.56-3.91,3.72-10.51,5.56-12.39a7,7,0,0,1,2.22-1.87,7.19,7.19,0,0,1,2.44-.74,5.5,5.5,0,0,1,2.07.09,7.4,7.4,0,0,1,1.85.47c.65.26,1.27.59,1.81.86a6.7,6.7,0,0,1,2.44,2,12,12,0,0,1,1.67,3.76,5.51,5.51,0,0,1-.31,2.92c-.88,2.4-3.85,8.31-4.94,11.48a46.88,46.88,0,0,0-1.59,7.53c-.49,2.95-1.14,6.93-1.33,10.21a52.32,52.32,0,0,0,.17,9.45,71.4,71.4,0,0,0,2.1,9.34c.83,3.16,1.49,6.61,2.89,9.67a66.89,66.89,0,0,0,6.67,11.29,34.63,34.63,0,0,0,7.18,6.82,34.49,34.49,0,0,0,26.58,6A71,71,0,0,0,437,262.23a54.73,54.73,0,0,0,10.19-4.55,69.58,69.58,0,0,0,11.4-8.49,58.94,58.94,0,0,0,9.68-11.57c3-5,6.28-15.33,8.59-18.36a5.71,5.71,0,0,1,3.1-1.73,8.61,8.61,0,0,1,3.86-.22,8.21,8.21,0,0,1,7,6.05,7.4,7.4,0,0,1,.17,4.53c-1.12,3.34-4.7,11.12-6.92,15.56-1.91,3.82-4.16,7.46-6.41,11.09-2.8,4.5-6.53,10.91-10.39,16a130.65,130.65,0,0,1-14.24,16.19c-3.32,3.07-6.89,6.33-11.76,10.47-5.29,4.49-11.78,9.59-15,11.85-2.11,1.48-4.33,3.07-6.61,4.44-1.58.95-4.56,2.55-6.64,3.66a248.43,248.43,0,0,0-50.67-20.61"/><path class="cls-4" d="M184.91,318.51c-1.41-.78-3-1.68-4.1-2.33-2.31-1.38-4.59-2.89-6.8-4.36-3.31-2.18-4.94-3.68-9.29-7-2.75-2.06-5.49-4.42-8.26-6.61a85.46,85.46,0,0,1-10.4-9.88c-1.29-1.41-2.93-2.93-4.29-4.5-1.86-2.13-4.88-5.88-6.86-8.31-1.7-2.09-3.47-4.12-5-6.28-1.72-2.36-3.55-5.2-5.25-7.84-2-3.09-4.71-7.21-6.73-10.72s-3.76-6.82-5.39-10.36c-1.76-3.82-5.06-9.93-5.16-12.56a6.91,6.91,0,0,1,.17-2.89,7,7,0,0,1,1.15-2.27,5.63,5.63,0,0,1,1.49-1.43,7.17,7.17,0,0,1,1.61-1c.65-.29,1.31-.52,1.87-.72a6.81,6.81,0,0,1,3.13-.39,11.83,11.83,0,0,1,3.88,1.38,5.45,5.45,0,0,1,1.9,2.24c1.14,2.28,3.39,8.51,4.94,11.48a45.77,45.77,0,0,0,4.37,6.34c1.81,2.39,4.25,5.61,6.5,8a52.81,52.81,0,0,0,7,6.39,69.9,69.9,0,0,0,8.23,4.92,59.7,59.7,0,0,0,9,4.59,67.7,67.7,0,0,0,12.8,3,34.55,34.55,0,0,0,9.9-.49,34.4,34.4,0,0,0,22.67-15.07,72.28,72.28,0,0,0,5.42-9.82,54.62,54.62,0,0,0,3.71-10.5,68.7,68.7,0,0,0,1.71-14.09,58.84,58.84,0,0,0-1.74-15c-1.52-5.64-6.8-15.11-7.4-18.87a5.7,5.7,0,0,1,.88-3.43,8.63,8.63,0,0,1,2.49-2.94,10.29,10.29,0,0,1,4.37-1.87,10.15,10.15,0,0,1,4.88,1,7.42,7.42,0,0,1,3.41,3c1.65,3.13,4.83,11.07,6.52,15.73,1.46,4,2.56,8.15,3.64,12.28,1.34,5.13,3.43,12.24,4.42,18.51a129.88,129.88,0,0,1,1.93,21.44c-.05,4.52-.15,9.34-.5,15.71-.38,6.92-1.15,15.12-1.74,19-.38,2.55-.75,5.25-1.33,7.84-.4,1.76-1.26,4.94-1.88,7.19a284.39,284.39,0,0,0-51.82,21.48"/><path class="cls-3" d="M253.5,292.62c-1.94-2.49-5-6.37-6.71-8.79-1.3-1.79-2.56-3.62-3.81-5.46.9-8.14,3.14-33-.08-54.32-3-19.9-14.92-45.59-15.1-46-2-3.88-8.09-6-13-4.45A10.38,10.38,0,0,0,207.48,184c-.15,5.26,7.36,15.81,8.68,23.44,1,5.9.11,16.62-.44,21.85-2.35-5.34-3.95-9.92-5.05-13.07s-2.63-6.63-3.72-10c-1.49-4.65-3.72-12.63-5.21-17.83-1.28-4.44-2.7-8.85-3.73-13.36-1.11-4.89-2.07-10.63-3-16-1.05-6.25-2.54-14.6-3.35-21.53-.77-6.66-1.31-13.35-1.49-20.05-.18-7.24-1.26-19.16.38-23.39a12.13,12.13,0,0,1,2.23-4.46,12.33,12.33,0,0,1,3.38-2.82,9.52,9.52,0,0,1,3.32-1.26,12.53,12.53,0,0,1,3.25-.5c1.22,0,2.42.06,3.45.13a11.68,11.68,0,0,1,5.22,1.48,20.54,20.54,0,0,1,5.21,4.83,9.5,9.5,0,0,1,1.49,4.83c.25,4.39-.43,15.78,0,21.53a78.25,78.25,0,0,0,2.61,13c1.24,5,2.91,11.76,4.84,17.08a90.1,90.1,0,0,0,6.7,14.85c2.73,4.71,6.3,9,9.68,13.37s6.87,9.46,11.17,13.37a115.57,115.57,0,0,0,18.25,13.36,59.24,59.24,0,0,0,16,5.94,61.34,61.34,0,0,0,16.75,1.49,62,62,0,0,0,16-3.34,60.88,60.88,0,0,0,13.41-6.69,123,123,0,0,0,15.27-11.88,94.51,94.51,0,0,0,13-14.1,119.25,119.25,0,0,0,12.29-21.17,101.2,101.2,0,0,0,7.44-24.87c1.43-10-.48-28.54,1.12-34.91.51-2,2.14-3.55,3.72-4.82a14.88,14.88,0,0,1,6-3,14.23,14.23,0,0,1,15.27,4.82A12.76,12.76,0,0,1,411,97.45c.49,6.06.12,20.79-.37,29.33-.43,7.34-1.51,14.64-2.61,21.91-1.36,9-2.9,21.7-5.59,32.3-2.85,11.26-6.46,23.81-11.54,35.27-1.83,4.14-3.76,8.43-6,13.23-.93-5-1.8-10.88-1.67-14.86-.33-17.59,7.12-28.92,7.41-32.38.72-3.15-2.42-10-9.18-10.69-6.57-.66-9.16,3.38-11.12,7.26-3.59,7.11-10.18,25-14,45.88-3.4,18.57-.38,55-.38,55l-8.9,13a238.63,238.63,0,0,0-49.75-5.22,200.58,200.58,0,0,0-43.79,5.16"/><path class="cls-6" d="M148.49,354.38a368.39,368.39,0,0,1,70.74-30.83c25.7-8,57.47-11.57,77.58-11.5,21.64.08,53.32,2,82.62,11,39.75,12.2,75.13,32.48,75.13,32.48s-27.45-24.77-69.1-41.42c-27.93-11.16-50.36-16.21-88.65-16.5-33.13-.25-56.73,6.82-85.92,18.53-38.66,15.5-62.4,38.28-62.4,38.28"/></g></g></g><g id="Black_Outlines" data-name="Black Outlines"><path class="cls-7" d="M105.63,367.17h26.3c.52,0,.78.3.78.89l-.05,4.69a1,1,0,0,1-1.1,1.1H114.92c-.67,0-1,.28-1,.83v7.57c0,.59.27.89.79.89h11.06c.59,0,.89.28.89.83v5a.71.71,0,0,1-.19.52.83.83,0,0,1-.65.21H114.65c-.48,0-.73.21-.73.63v8.19c0,.45.19.68.58.68h17.84c.63,0,.94.26.94.78v5a1,1,0,0,1-.23.68,1.08,1.08,0,0,1-.81.26h-26.3c-.77,0-1.15-.37-1.15-1.1V368.16Q104.79,367.17,105.63,367.17Z"/><path class="cls-7" d="M164.3,405.5q-.08.39-1,.39h-6.68a1.91,1.91,0,0,1-1.77-.84l-5.38-7.56q-.42-.63-.6-.63c-.12,0-.34.19-.65.58l-5.48,7.61a1.87,1.87,0,0,1-1.72.84h-4.28a1.35,1.35,0,0,1-1.2-.47q-.32-.46.57-1.62l8.56-11A1.32,1.32,0,0,0,145,392a1.87,1.87,0,0,0-.34-.81l-8.45-11.48a.89.89,0,0,1-.16-1,.91.91,0,0,1,.94-.5h6.36a2.29,2.29,0,0,1,1.05.19,1.45,1.45,0,0,1,.62.65l4.86,6.83c.31.49.6.49.88,0l4.6-6.83a1.75,1.75,0,0,1,.65-.65,2.22,2.22,0,0,1,1.07-.19h4.69c.53,0,.81.13.87.37a1.06,1.06,0,0,1-.29.83L154.57,390a1.14,1.14,0,0,0-.31.79,2.24,2.24,0,0,0,.36.78l9.08,12.57C164.16,404.78,164.36,405.24,164.3,405.5Z"/><path class="cls-7" d="M177.74,383.76q-.57,0-.57.63V397a3.32,3.32,0,0,0,.83,2.53,3.93,3.93,0,0,0,2.66.75h2.82a.72.72,0,0,1,.58.26,1.05,1.05,0,0,1,.2.63l0,3.18c0,.66-.38,1.08-1.15,1.26-.62.07-1.29.13-2,.18s-1.43.09-2.14.1l-2.07,0a8.67,8.67,0,0,1-5.63-1.7,6.11,6.11,0,0,1-2.09-5V384.55c0-.53-.22-.79-.68-.79h-3.18c-.66,0-1-.29-1-.88V379c0-.53.31-.79.94-.79h3.6c.31,0,.49-.19.52-.57l.73-7.93c0-.59.3-.89.78-.89h5.69q.84,0,.84,1v7.83a.46.46,0,0,0,.52.52h5.48c.62,0,.94.28.94.84v3.86c0,.59-.35.88-1,.88Z"/><path class="cls-7" d="M188.91,405.63a1.06,1.06,0,0,1-.26-.79V379.22c0-.66.27-1,.83-1h6.11c.55,0,.83.3.83.89v3.08a.36.36,0,0,0,.24.39c.15.05.32,0,.49-.23a12.93,12.93,0,0,1,2.38-2.46,11.36,11.36,0,0,1,2.74-1.61,6.92,6.92,0,0,1,2.66-.58c1.25,0,1.88.3,1.88.89v6c0,.56-.27.78-.79.68a10.25,10.25,0,0,0-1.93-.34c-.66-.05-1.23-.08-1.72-.08a5.65,5.65,0,0,0-2,.37,6.38,6.38,0,0,0-1.85,1,6.62,6.62,0,0,0-1.36,1.46,3,3,0,0,0-.52,1.67v15.24q0,1.2-1.35,1.2h-5.59A1.15,1.15,0,0,1,188.91,405.63Z"/><path class="cls-7" d="M221.39,405.55a11.71,11.71,0,0,1-4.62.86,8.7,8.7,0,0,1-6.23-2.14,7.17,7.17,0,0,1-2.27-5.48,7.76,7.76,0,0,1,1.82-5.11,11.91,11.91,0,0,1,5.22-3.42,25.48,25.48,0,0,1,8.09-1.33l1.83-.16a1.1,1.1,0,0,0,.57-.15.64.64,0,0,0,.26-.58V387a4.13,4.13,0,0,0-1.15-3.11,4.48,4.48,0,0,0-3.28-1.12,6.81,6.81,0,0,0-3,.7,5.79,5.79,0,0,0-2.43,2.43.93.93,0,0,1-.37.47,1.4,1.4,0,0,1-.78,0l-5.22-1.2a.74.74,0,0,1-.44-.34c-.09-.16,0-.49.18-1a8.64,8.64,0,0,1,4.52-4.56,18.75,18.75,0,0,1,7.9-1.49,17.84,17.84,0,0,1,6.89,1.1,7.51,7.51,0,0,1,3.7,3.05,8.8,8.8,0,0,1,1.15,4.56v18.32a1.45,1.45,0,0,1-.21.89,1,1,0,0,1-.78.26h-5.37a.84.84,0,0,1-.81-.42,2.45,2.45,0,0,1-.29-1l-.1-1.15c-.07-.63-.46-.64-1.15,0A13.06,13.06,0,0,1,221.39,405.55Zm3.89-12.86-1.46.1a14.16,14.16,0,0,0-2.72.39,10.48,10.48,0,0,0-2.45.94,5.8,5.8,0,0,0-1.8,1.51,3.38,3.38,0,0,0-.7,2.12,3.06,3.06,0,0,0,1.09,2.48,4.59,4.59,0,0,0,3,.91,6,6,0,0,0,2.32-.42,7.48,7.48,0,0,0,1.75-1,7.33,7.33,0,0,0,1.25-1.35,2.5,2.5,0,0,0,.47-1.41v-3.4C226.06,393,225.8,392.69,225.28,392.69Z"/><path class="cls-8" d="M245,404.58a12.91,12.91,0,0,1-4.94-5,14.92,14.92,0,0,1-1.77-7.33,15.29,15.29,0,0,1,1.83-7.6,13,13,0,0,1,5-5.08,15.32,15.32,0,0,1,14.56,0,12.91,12.91,0,0,1,4.87,5.12,15.54,15.54,0,0,1,1.75,7.49,15,15,0,0,1-1.77,7.38,13,13,0,0,1-4.93,5,15.49,15.49,0,0,1-14.61,0Zm10.56-4.51a6.12,6.12,0,0,0,2-3.05,16.57,16.57,0,0,0,.65-5,16.94,16.94,0,0,0-.65-5.09,6.3,6.3,0,0,0-2-3.05,5.5,5.5,0,0,0-6.44,0,6.29,6.29,0,0,0-2,3.05,16.24,16.24,0,0,0-.68,5.09,15.76,15.76,0,0,0,.68,5,6.14,6.14,0,0,0,2,3,5.59,5.59,0,0,0,6.44,0Z"/><path class="cls-8" d="M271,405.63a1.11,1.11,0,0,1-.26-.79V379.22c0-.66.28-1,.83-1h6.11c.56,0,.83.3.83.89v3.08a.36.36,0,0,0,.24.39c.16.05.32,0,.5-.23a12.58,12.58,0,0,1,2.37-2.46,11.55,11.55,0,0,1,2.74-1.61,7,7,0,0,1,2.66-.58c1.25,0,1.88.3,1.88.89v6c0,.56-.26.78-.78.68a10.4,10.4,0,0,0-1.93-.34c-.67-.05-1.24-.08-1.73-.08a5.59,5.59,0,0,0-1.95.37,6.3,6.3,0,0,0-1.86,1,6.56,6.56,0,0,0-1.35,1.46,2.94,2.94,0,0,0-.52,1.67v15.24c0,.8-.46,1.2-1.36,1.2h-5.58A1.16,1.16,0,0,1,271,405.63Z"/><path class="cls-8" d="M310.57,405.65a.89.89,0,0,1-.34-.81v-1.46c0-.24-.07-.38-.21-.41s-.31,0-.52.2a17.6,17.6,0,0,1-1.88,1.54,8.79,8.79,0,0,1-2.45,1.23,10.53,10.53,0,0,1-3.29.47,10.23,10.23,0,0,1-5.64-1.57,10.43,10.43,0,0,1-3.86-4.72,19.24,19.24,0,0,1-1.41-7.85,17.88,17.88,0,0,1,1.54-7.65,12.6,12.6,0,0,1,4.15-5.08,9.77,9.77,0,0,1,5.74-1.83,9.59,9.59,0,0,1,3.71.68,10.77,10.77,0,0,1,3.13,2.09c.28.21.49.28.65.23s.23-.27.23-.65V368.11c0-.63.28-.94.84-.94h6.37c.55,0,.83.33.83,1v36.63a1.17,1.17,0,0,1-.26.84,1.35,1.35,0,0,1-.94.26h-5.64A1.26,1.26,0,0,1,310.57,405.65Zm-2.77-22.12a5.66,5.66,0,0,0-5.79.31,6.23,6.23,0,0,0-2.14,3,15.69,15.69,0,0,0-.76,5.33,15.86,15.86,0,0,0,.76,5.37,6,6,0,0,0,2.09,2.95,5.23,5.23,0,0,0,3.05.91,5.08,5.08,0,0,0,2.61-.68,5.5,5.5,0,0,0,1.83-1.72,3.94,3.94,0,0,0,.67-2.19V385.43A9.33,9.33,0,0,0,307.8,383.53Z"/><path class="cls-8" d="M332,373.59c0,.87-.47,1.3-1.41,1.3H325a1.09,1.09,0,0,1-.92-.31,1.5,1.5,0,0,1-.23-.89v-5.48c0-.69.29-1,.89-1h6.47c.55,0,.83.33.83,1Zm-.1,31.05a1.25,1.25,0,0,1-.32,1,1.62,1.62,0,0,1-1.09.29h-5.48a1.26,1.26,0,0,1-.92-.26,1.28,1.28,0,0,1-.23-.84V379.22q0-1,.84-1h6.41c.52,0,.79.3.79.89Z"/><path class="cls-8" d="M337.73,404.84V379.22c0-.66.28-1,.83-1h6.32c.52,0,.78.3.78.89v2.56a.44.44,0,0,0,.16.41c.1.07.26,0,.47-.2a24,24,0,0,1,2.71-2.2,12,12,0,0,1,2.87-1.46,10.08,10.08,0,0,1,3.23-.52,7.7,7.7,0,0,1,8.25,8.25v18.68a1.11,1.11,0,0,1-1.25,1.25h-5.8a1,1,0,0,1-.75-.24,1.09,1.09,0,0,1-.24-.81V387.21a3.72,3.72,0,0,0-1-2.74,3.89,3.89,0,0,0-2.85-1,5.39,5.39,0,0,0-2,.37,6.88,6.88,0,0,0-1.83,1.07,16.16,16.16,0,0,0-1.88,1.8v17.95q0,1.2-1.35,1.2h-5.59C338.09,405.89,337.73,405.54,337.73,404.84Z"/><path class="cls-8" d="M380.07,405.55a11.71,11.71,0,0,1-4.62.86,8.7,8.7,0,0,1-6.23-2.14,7.21,7.21,0,0,1-2.27-5.48,7.76,7.76,0,0,1,1.82-5.11,11.91,11.91,0,0,1,5.22-3.42,25.48,25.48,0,0,1,8.09-1.33l1.83-.16a1.1,1.1,0,0,0,.57-.15.62.62,0,0,0,.26-.58V387a4.13,4.13,0,0,0-1.15-3.11,4.48,4.48,0,0,0-3.28-1.12,6.81,6.81,0,0,0-3,.7,5.79,5.79,0,0,0-2.43,2.43.88.88,0,0,1-.37.47,1.39,1.39,0,0,1-.78,0l-5.22-1.2a.77.77,0,0,1-.44-.34c-.09-.16,0-.49.18-1a8.64,8.64,0,0,1,4.52-4.56,18.75,18.75,0,0,1,7.9-1.49,17.8,17.8,0,0,1,6.89,1.1,7.51,7.51,0,0,1,3.7,3.05,8.8,8.8,0,0,1,1.15,4.56v18.32a1.45,1.45,0,0,1-.21.89,1,1,0,0,1-.78.26h-5.37a.84.84,0,0,1-.81-.42,2.6,2.6,0,0,1-.29-1l-.1-1.15c-.07-.63-.46-.64-1.15,0A13.06,13.06,0,0,1,380.07,405.55ZM384,392.69l-1.46.1a14,14,0,0,0-2.71.39,10.4,10.4,0,0,0-2.46.94,5.8,5.8,0,0,0-1.8,1.51,3.38,3.38,0,0,0-.7,2.12,3.06,3.06,0,0,0,1.09,2.48,4.59,4.59,0,0,0,3,.91,6,6,0,0,0,2.32-.42,7.48,7.48,0,0,0,1.75-1,7.33,7.33,0,0,0,1.25-1.35,2.43,2.43,0,0,0,.47-1.41v-3.4C384.74,393,384.48,392.69,384,392.69Z"/><path class="cls-8" d="M398.47,405.63a1.06,1.06,0,0,1-.26-.79V379.22c0-.66.27-1,.83-1h6.1c.56,0,.84.3.84.89v3.08a.36.36,0,0,0,.23.39c.16.05.33,0,.5-.23a13.19,13.19,0,0,1,2.37-2.46,11.55,11.55,0,0,1,2.74-1.61,7,7,0,0,1,2.67-.58c1.25,0,1.87.3,1.87.89v6c0,.56-.26.78-.78.68a10.25,10.25,0,0,0-1.93-.34c-.66-.05-1.23-.08-1.72-.08a5.65,5.65,0,0,0-2,.37,6.25,6.25,0,0,0-1.85,1,6.62,6.62,0,0,0-1.36,1.46,2.94,2.94,0,0,0-.52,1.67v15.24c0,.8-.45,1.2-1.36,1.2H399.3A1.15,1.15,0,0,1,398.47,405.63Z"/><path class="cls-8" d="M420.64,414.34a.79.79,0,0,1-.73-.83v-4a.75.75,0,0,1,.31-.57,1.92,1.92,0,0,1,1.2-.27H425a3.46,3.46,0,0,0,1.8-.47,4.17,4.17,0,0,0,1.31-1.14,4.47,4.47,0,0,0,.7-1.46,1.93,1.93,0,0,0-.1-1.41l-10-24.68a.89.89,0,0,1,0-.87.85.85,0,0,1,.8-.39h6.58a1.16,1.16,0,0,1,.73.24,1.1,1.1,0,0,1,.42.65L433,394.67c.1.31.24.48.42.5s.33-.17.47-.55l5.74-15.55a1.93,1.93,0,0,1,.47-.6.93.93,0,0,1,.67-.24h4.49a.76.76,0,0,1,.73.39.83.83,0,0,1,0,.81l-10.7,26.46A23,23,0,0,1,433,410.3a9.59,9.59,0,0,1-2.59,2.61,8.9,8.9,0,0,1-3.21,1.25,23.82,23.82,0,0,1-4.25.34A12,12,0,0,1,420.64,414.34Z"/><path class="cls-7" d="M459.05,367.17c.55,0,.83.31.83.94v36.53a1.18,1.18,0,0,1-.34,1,1.63,1.63,0,0,1-1.07.29H451.9a.94.94,0,0,1-1.15-1.1V368.16c0-.66.28-1,.83-1Z"/><path class="cls-7" d="M486.57,374.06a9.65,9.65,0,0,0-4.82-1,8.38,8.38,0,0,0-4.91,1.17,3.56,3.56,0,0,0-1.62,3,3.36,3.36,0,0,0,1.57,2.77,9.12,9.12,0,0,0,2.66,1.2l8.24,2.34a12.57,12.57,0,0,1,7,4.21,11.48,11.48,0,0,1,.31,13,11.93,11.93,0,0,1-5.38,4.15,21.48,21.48,0,0,1-8.29,1.46,26.31,26.31,0,0,1-6.66-.81,18.46,18.46,0,0,1-5.47-2.35,12.57,12.57,0,0,1-3.74-3.57,1.49,1.49,0,0,1-.2-.86,1.18,1.18,0,0,1,.52-.71l4-2.76a1.66,1.66,0,0,1,1-.31,1.12,1.12,0,0,1,.71.41,17.94,17.94,0,0,0,2.48,2.61,7.56,7.56,0,0,0,2.84,1.52,14.13,14.13,0,0,0,3.86.46,11.65,11.65,0,0,0,5.43-1.07,3.49,3.49,0,0,0,2-3.31,3.41,3.41,0,0,0-.41-1.64,4,4,0,0,0-1.33-1.36,10.58,10.58,0,0,0-2.59-1.12L476,389.29a15.14,15.14,0,0,1-5.16-2.5,10.8,10.8,0,0,1-3.16-3.81,10.37,10.37,0,0,1-1.07-4.59,10.27,10.27,0,0,1,1.85-6,12.49,12.49,0,0,1,5.22-4.2,18.67,18.67,0,0,1,7.85-1.54,21.89,21.89,0,0,1,5.56.68,18.93,18.93,0,0,1,4.67,1.88,11.14,11.14,0,0,1,3.39,2.92,1.73,1.73,0,0,1,.32.6c.07.22,0,.46-.32.7l-4.38,3.24a.67.67,0,0,1-.57.13,2.18,2.18,0,0,1-.73-.5A12.35,12.35,0,0,0,486.57,374.06Z"/><path class="cls-8" d="M188.86,440.18a.19.19,0,0,1,0-.15l3.11-8.54a.36.36,0,0,1,.08-.12.22.22,0,0,1,.16,0h.93a.26.26,0,0,1,.28.18l3.07,8.52a.2.2,0,0,1,0,.13.1.1,0,0,1-.11.07h-.85a.18.18,0,0,1-.19-.12l-.83-2.33-.05-.07s0,0-.1,0h-3.49a.13.13,0,0,0-.14.09l-.85,2.34a.16.16,0,0,1-.06.08.21.21,0,0,1-.12,0H189A.13.13,0,0,1,188.86,440.18Zm5.18-3.41c.1,0,.13,0,.1-.15l-1.44-3.95c0-.07-.06-.11-.09-.11s-.06,0-.08.11l-1.47,4c0,.09,0,.13.08.13Z"/><path class="cls-8" d="M212.76,440.05v-8.56c0-.11.05-.16.14-.16h1.16c.06,0,.11,0,.13,0a.19.19,0,0,1,.07.11l2.66,6.87c0,.08.07.11.1.11s.06-.05.1-.12l2.66-6.84a.18.18,0,0,1,.18-.15h1.21c.09,0,.13.05.13.15v8.57a.16.16,0,0,1-.18.18h-.79a.2.2,0,0,1-.14,0,.17.17,0,0,1,0-.12v-6.86s0-.06,0,0,0,0,0,0l-2.64,6.86a.22.22,0,0,1-.23.16h-.57a.22.22,0,0,1-.24-.14l-2.61-6.81s0-.06,0,0,0,0,0,0v6.79a.17.17,0,0,1,0,.12.17.17,0,0,1-.13,0h-.65C212.82,440.23,212.76,440.17,212.76,440.05Z"/><path class="cls-8" d="M231,439.82a3.4,3.4,0,0,1-1.32-1.54,6.09,6.09,0,0,1-.45-2.47,5.89,5.89,0,0,1,.47-2.49,3.48,3.48,0,0,1,1.32-1.57,4.07,4.07,0,0,1,4.05,0,3.47,3.47,0,0,1,1.3,1.56,6,6,0,0,1,.47,2.49,6.08,6.08,0,0,1-.46,2.47,3.45,3.45,0,0,1-1.31,1.55,4.17,4.17,0,0,1-4.07,0Zm4-1.24a4.77,4.77,0,0,0,.65-2.77A4.85,4.85,0,0,0,235,433a2.52,2.52,0,0,0-3.89,0,4.83,4.83,0,0,0-.66,2.81,4.68,4.68,0,0,0,.66,2.76,2.28,2.28,0,0,0,2,.9A2.2,2.2,0,0,0,235,438.58Z"/><path class="cls-8" d="M251.05,431.38a.1.1,0,0,1,0,.13l-3,8.54a.25.25,0,0,1-.27.18h-.81c-.16,0-.26-.06-.29-.17l-3-8.55a.19.19,0,0,1,0-.13.13.13,0,0,1,.12-.05h.83a.2.2,0,0,1,.21.14l2.49,7.27c.07.15.13.15.18,0l2.53-7.27a.17.17,0,0,1,.18-.13h.71C251,431.33,251,431.34,251.05,431.38Z"/><path class="cls-8" d="M258.91,431.33h5.39c.08,0,.12,0,.12.13v.61c0,.1-.05.14-.16.14h-4.18c-.11,0-.16.05-.16.15v2.81a.12.12,0,0,0,.13.13h3.11c.09,0,.13,0,.13.13v.64a.1.1,0,0,1-.13.1h-3.11c-.09,0-.13.05-.13.14v2.91a.11.11,0,0,0,.12.12h4.4c.09,0,.14,0,.14.12v.64a.12.12,0,0,1,0,.09.12.12,0,0,1-.11,0h-5.5a.15.15,0,0,1-.17-.17v-8.57C258.77,431.38,258.82,431.33,258.91,431.33Z"/><path class="cls-8" d="M272.3,440.05v-8.56c0-.11.05-.16.15-.16h1.15a.28.28,0,0,1,.14,0,.15.15,0,0,1,.06.11l2.67,6.87c0,.08.06.11.09.11s.07-.05.1-.12l2.66-6.84q.06-.15.18-.15h1.22c.08,0,.13.05.13.15v8.57a.16.16,0,0,1-.18.18h-.79a.18.18,0,0,1-.14,0s0-.06,0-.12v-6.86s0-.06,0,0,0,0,0,0L277,440.07a.23.23,0,0,1-.23.16h-.58a.22.22,0,0,1-.24-.14l-2.6-6.81s0-.06,0,0,0,0,0,0v6.79c0,.06,0,.1,0,.12s-.07,0-.13,0h-.65C272.36,440.23,272.3,440.17,272.3,440.05Z"/><path class="cls-8" d="M289.32,431.33h5.39c.08,0,.12,0,.12.13v.61c0,.1-.05.14-.16.14h-4.19a.13.13,0,0,0-.15.15v2.81a.12.12,0,0,0,.13.13h3.11c.09,0,.13,0,.13.13v.64a.14.14,0,0,1,0,.07.16.16,0,0,1-.11,0h-3.11c-.09,0-.13.05-.13.14v2.91a.11.11,0,0,0,.12.12h4.4c.09,0,.13,0,.13.12v.64s0,.07,0,.09a.14.14,0,0,1-.11,0h-5.51c-.11,0-.16-.06-.16-.17v-8.57C289.18,431.38,289.22,431.33,289.32,431.33Z"/><path class="cls-8" d="M309.34,431.33c.09,0,.13,0,.13.14v8.62a.12.12,0,0,1,0,.1.16.16,0,0,1-.12,0h-.72a.24.24,0,0,1-.12-.09l-4.63-6.73s-.07-.08-.09-.07,0,0,0,.08v6.66c0,.11-.06.16-.17.16h-.67a.14.14,0,0,1-.16-.16v-8.58a.14.14,0,0,1,.16-.16h.83a.37.37,0,0,1,.11.11l4.5,6.58c0,.06.09.08.12.06a.08.08,0,0,0,.06-.09v-6.53c0-.1,0-.14.14-.14Z"/><path class="cls-8" d="M317.14,431.46a.17.17,0,0,1,0-.1.16.16,0,0,1,.11,0h6.46a.18.18,0,0,1,.11,0,.17.17,0,0,1,0,.1v.62c0,.08-.05.12-.14.12H321.3c-.09,0-.13,0-.13.12v7.75c0,.11-.05.16-.14.16h-.87c-.09,0-.14-.05-.14-.16v-7.74c0-.08,0-.13-.12-.13h-2.62c-.09,0-.14,0-.14-.12Z"/><path class="cls-8" d="M340.14,440.19a.15.15,0,0,1,0-.1v-8.6a.17.17,0,0,1,0-.12.12.12,0,0,1,.11,0H343a4.4,4.4,0,0,1,2.47.58,2.14,2.14,0,0,1,.49,2.94,2.48,2.48,0,0,1-1.19.78s-.05,0-.05.05,0,0,.05.05a2.51,2.51,0,0,1,1.32.74,2.26,2.26,0,0,1-.44,3.17,4.68,4.68,0,0,1-2.56.59h-2.87A.12.12,0,0,1,340.14,440.19Zm3.05-4.89a4.39,4.39,0,0,0,.72-.07,2,2,0,0,0,.65-.25,1.32,1.32,0,0,0,.47-.47,1.39,1.39,0,0,0,.17-.75,1.32,1.32,0,0,0-.59-1.2,2.84,2.84,0,0,0-1.58-.39h-1.62c-.1,0-.15,0-.15.14v2.83c0,.11,0,.16.1.16Zm-.13,4.09a3.27,3.27,0,0,0,1.75-.38,1.32,1.32,0,0,0,.57-1.19,1.54,1.54,0,0,0-.28-1,1.73,1.73,0,0,0-.78-.53,3.58,3.58,0,0,0-1.13-.17h-1.77c-.11,0-.16,0-.16.15v2.91c0,.11,0,.17.1.17Z"/><path class="cls-8" d="M360.53,431.37a.11.11,0,0,1,0,.12l-2.86,4.78a.53.53,0,0,0-.06.14,1.71,1.71,0,0,0,0,.26V440c0,.13-.08.2-.23.2h-.72a.22.22,0,0,1-.16-.05.23.23,0,0,1,0-.13v-3.34a.42.42,0,0,0,0-.18.9.9,0,0,0-.07-.14l-2.89-4.87c0-.06,0-.1,0-.14s.07-.05.15-.05h.87a.28.28,0,0,1,.15,0,.36.36,0,0,1,.1.11l2.23,3.84c.05.09.09.13.13.14s.09,0,.14-.12l2.21-3.86a.44.44,0,0,1,.1-.12.32.32,0,0,1,.16,0h.74C360.48,431.33,360.51,431.34,360.53,431.37Z"/><path class="cls-8" d="M376.1,431.46a.17.17,0,0,1,0-.1.17.17,0,0,1,.12,0h6.45a.16.16,0,0,1,.11,0,.13.13,0,0,1,0,.1v.62q0,.12-.15.12h-2.43c-.09,0-.13,0-.13.12v7.75c0,.11-.05.16-.15.16h-.86c-.1,0-.15-.05-.15-.16v-7.74c0-.08,0-.13-.12-.13h-2.61q-.15,0-.15-.12Z"/><path class="cls-8" d="M391.75,436.07a.08.08,0,0,0-.09.09v3.89q0,.18-.21.18h-.78c-.06,0-.11,0-.13,0a.22.22,0,0,1,0-.13v-8.57c0-.11.05-.16.15-.16h.86a.13.13,0,0,1,.15.15V435c0,.1,0,.14.13.14h3.93c.08,0,.12,0,.12-.14v-3.54a.12.12,0,0,1,.14-.14h.87c.1,0,.15.05.15.16v8.57a.22.22,0,0,1,0,.13s-.07,0-.13,0h-.78q-.21,0-.21-.18v-3.88c0-.07,0-.1-.1-.1Z"/><path class="cls-8" d="M405.47,431.33h5.39a.11.11,0,0,1,.12.13v.61c0,.1-.06.14-.16.14h-4.19a.13.13,0,0,0-.15.15v2.81a.12.12,0,0,0,.13.13h3.1c.09,0,.14,0,.14.13v.64a.09.09,0,0,1,0,.07s-.05,0-.11,0h-3.1c-.09,0-.13.05-.13.14v2.91c0,.08,0,.12.11.12H411c.09,0,.13,0,.13.12v.64a.12.12,0,0,1,0,.09.11.11,0,0,1-.1,0h-5.51a.15.15,0,0,1-.17-.17v-8.57C405.32,431.38,405.37,431.33,405.47,431.33Z"/><path class="cls-8" d="M122.05,461.26a15.2,15.2,0,0,1,5.8,1.1,14.54,14.54,0,0,1,4.67,3,13.79,13.79,0,0,1,4.25,10.08,12.68,12.68,0,0,1-1.15,5.38,13.82,13.82,0,0,1-3.13,4.37,14.83,14.83,0,0,1-4.67,2.94,16,16,0,0,1-11.54,0,14.83,14.83,0,0,1-4.67-2.94,13.82,13.82,0,0,1-3.13-4.37,12.68,12.68,0,0,1-1.15-5.38,13.89,13.89,0,0,1,1.13-5.59,14,14,0,0,1,3.12-4.49,14.54,14.54,0,0,1,4.67-3A15.2,15.2,0,0,1,122.05,461.26Zm0,26a10.34,10.34,0,0,0,4.19-.81,8.89,8.89,0,0,0,3.19-2.34,10.44,10.44,0,0,0,2-3.69,15.52,15.52,0,0,0,.71-4.87,16.92,16.92,0,0,0-.71-5.11,11.61,11.61,0,0,0-2-3.9,9,9,0,0,0-3.19-2.47,10.62,10.62,0,0,0-8.42,0,8.83,8.83,0,0,0-3.18,2.47,11.45,11.45,0,0,0-2,3.9,17.24,17.24,0,0,0-.71,5.11,15.82,15.82,0,0,0,.71,4.87,10.43,10.43,0,0,0,2,3.69,8.61,8.61,0,0,0,3.18,2.34A10.5,10.5,0,0,0,122.05,487.27Z"/><path class="cls-8" d="M158.26,474.52h-1a6,6,0,0,0-.35-1.78,2.6,2.6,0,0,0-.78-1.13,3.11,3.11,0,0,0-1.27-.58,8.77,8.77,0,0,0-1.83-.17c-.61,0-1.11,0-1.48,0a3.63,3.63,0,0,0-.85.14.77.77,0,0,0-.39.24.74.74,0,0,0-.08.36v13.25a6.73,6.73,0,0,0,.11,1.36,1.84,1.84,0,0,0,.44.93,2.11,2.11,0,0,0,1,.54,6.13,6.13,0,0,0,1.67.21v.95H144v-.95a6.27,6.27,0,0,0,1.68-.21,2,2,0,0,0,1-.54,1.93,1.93,0,0,0,.45-.93,7.55,7.55,0,0,0,.11-1.36V471.63a.64.64,0,0,0-.09-.36.72.72,0,0,0-.34-.24,2.86,2.86,0,0,0-.73-.14c-.32,0-.74,0-1.27,0s-1.24,0-1.79.07a3.34,3.34,0,0,0-1.44.44,2.52,2.52,0,0,0-1,1.1,4.86,4.86,0,0,0-.4,2h-.91v-4.73H158Z"/><path class="cls-8" d="M165.12,484.18a14.39,14.39,0,0,0,.1,2,2.37,2.37,0,0,0,.38,1.11,1.35,1.35,0,0,0,.82.53,7,7,0,0,0,1.4.14v.95h-8v-.95a6.2,6.2,0,0,0,1.4-.16,1.48,1.48,0,0,0,.83-.51,2.12,2.12,0,0,0,.4-1.05,14.42,14.42,0,0,0,.1-1.84V474.3a13.52,13.52,0,0,0-.09-1.72,2.5,2.5,0,0,0-.35-1.08,1.39,1.39,0,0,0-.75-.56,6.18,6.18,0,0,0-1.29-.21v-.94h7.53v.94a4.64,4.64,0,0,0-1.28.2,1.44,1.44,0,0,0-.74.58,2.84,2.84,0,0,0-.35,1.13,18.05,18.05,0,0,0-.08,1.83Z"/><path class="cls-8" d="M170.39,483h.92a6,6,0,0,0,.66,2,5,5,0,0,0,1.21,1.51,5.57,5.57,0,0,0,1.68,1,6.33,6.33,0,0,0,2.07.33,4.46,4.46,0,0,0,2.9-.87,2.86,2.86,0,0,0,1.07-2.35,3,3,0,0,0-.21-1.14,3.08,3.08,0,0,0-.71-1,6.64,6.64,0,0,0-1.33-1,22,22,0,0,0-2.09-1,24.4,24.4,0,0,1-2.57-1.29,7,7,0,0,1-1.66-1.29,3.85,3.85,0,0,1-.88-1.42,5.14,5.14,0,0,1-.26-1.72,5.23,5.23,0,0,1,.41-2.11,4.85,4.85,0,0,1,1.15-1.67,5,5,0,0,1,1.76-1.09,6.13,6.13,0,0,1,2.22-.39,5.91,5.91,0,0,1,2,.35,6.79,6.79,0,0,1,1.9,1.12l.65-1.12h.57l.27,4.93h-.92a6.23,6.23,0,0,0-1.72-3,4,4,0,0,0-2.71-1,3.64,3.64,0,0,0-2.4.74,2.48,2.48,0,0,0-.9,2,2.83,2.83,0,0,0,.2,1.07,2.64,2.64,0,0,0,.65.92,6.13,6.13,0,0,0,1.16.87,15.35,15.35,0,0,0,1.78.9,33,33,0,0,1,3,1.53,9.75,9.75,0,0,1,1.93,1.41,4.2,4.2,0,0,1,1,1.48,4.87,4.87,0,0,1,.3,1.75,5.22,5.22,0,0,1-.5,2.28,5.12,5.12,0,0,1-1.39,1.78,6.23,6.23,0,0,1-2.13,1.15,8.39,8.39,0,0,1-2.72.41,7.74,7.74,0,0,1-2.54-.39,7.84,7.84,0,0,1-2.29-1.34l-.7,1.21h-.56Z"/><path class="cls-8" d="M207.18,482h-6.62q-.42,1-.72,1.8c-.19.52-.36,1-.48,1.35a8.52,8.52,0,0,0-.26,1,3.43,3.43,0,0,0-.07.64,1,1,0,0,0,.44,1,3.07,3.07,0,0,0,1.49.26v.95h-6v-.95a6.56,6.56,0,0,0,1-.19,2.68,2.68,0,0,0,.72-.35,2.32,2.32,0,0,0,.54-.58,5.94,5.94,0,0,0,.46-.88l6.44-16.13h1.07l5.62,14q.57,1.39,1,2.22a5.29,5.29,0,0,0,.82,1.25,1.86,1.86,0,0,0,.85.55,4.4,4.4,0,0,0,1.1.12v1h-8.07v-1a4.44,4.44,0,0,0,1.81-.25.84.84,0,0,0,.49-.82c0-.16,0-.31,0-.45a4.64,4.64,0,0,0-.09-.46c0-.17-.1-.35-.17-.56s-.17-.45-.29-.73Zm-6.12-1.23h5.65L204,473.41Z"/><path class="cls-8" d="M231.4,489.11l-11.76-15.5h-.1v10.57a17,17,0,0,0,.08,2,2.64,2.64,0,0,0,.35,1.11,1.23,1.23,0,0,0,.74.53,5.92,5.92,0,0,0,1.28.14v.95h-6.66v-.95a6.18,6.18,0,0,0,1.39-.16,1.44,1.44,0,0,0,.83-.51,2.12,2.12,0,0,0,.4-1.05,12.77,12.77,0,0,0,.1-1.84V474.3a13.52,13.52,0,0,0-.09-1.72,2.64,2.64,0,0,0-.34-1.08,1.45,1.45,0,0,0-.76-.56,6.18,6.18,0,0,0-1.29-.21v-.94h4.91l10.82,14.44h.1v-9.76a16.7,16.7,0,0,0-.09-1.94,2.6,2.6,0,0,0-.34-1.13,1.23,1.23,0,0,0-.75-.52,6.4,6.4,0,0,0-1.27-.15v-.94h6.66v.94a6.93,6.93,0,0,0-1.4.16,1.63,1.63,0,0,0-.83.51,2.14,2.14,0,0,0-.39,1.07,12.81,12.81,0,0,0-.1,1.83v14.81Z"/><path class="cls-8" d="M237.49,488.87v-.95a9.7,9.7,0,0,0,1.53-.13,1.8,1.8,0,0,0,.9-.42,1.53,1.53,0,0,0,.43-.85,6.69,6.69,0,0,0,.12-1.42V473.56a8.68,8.68,0,0,0-.09-1.4,1.62,1.62,0,0,0-.35-.84,1.33,1.33,0,0,0-.75-.43,10.24,10.24,0,0,0-1.29-.16v-.94h8.69a11.15,11.15,0,0,1,4.13.75,10,10,0,0,1,3.27,2,9.43,9.43,0,0,1,2.14,3.12,10,10,0,0,1,.77,3.94,9.47,9.47,0,0,1-.72,3.73,8.41,8.41,0,0,1-2,2.91,9.2,9.2,0,0,1-3.11,1.89,11,11,0,0,1-4,.69Zm6-17.86a.37.37,0,0,0-.42.42v13.4q0,2.82,3.69,2.82a6.61,6.61,0,0,0,5.2-2,8.64,8.64,0,0,0,1.81-5.93,12.53,12.53,0,0,0-.5-3.67,7.72,7.72,0,0,0-1.42-2.72,6.35,6.35,0,0,0-2.24-1.71,7.11,7.11,0,0,0-3-.59Z"/><path class="cls-8" d="M291.89,468.45a6.74,6.74,0,0,1-1.7,4.7,9.15,9.15,0,0,1-5.42,2.52l7.83,9.41a5.66,5.66,0,0,0,2.1,1.68,10.75,10.75,0,0,0,2.74.76v1.35h-6.83l-8.67-11.12a6.4,6.4,0,0,0-.86-.95,3.33,3.33,0,0,0-.85-.55,3.46,3.46,0,0,0-1-.25c-.39,0-.85-.05-1.4-.05v7.36a12.3,12.3,0,0,0,.16,2.14,2.21,2.21,0,0,0,.68,1.29,2.85,2.85,0,0,0,1.48.62,16.14,16.14,0,0,0,2.57.16v1.35H270.2v-1.35a10.13,10.13,0,0,0,2-.21,2.44,2.44,0,0,0,1.18-.6,2.32,2.32,0,0,0,.57-1.21,12,12,0,0,0,.14-2V467a12,12,0,0,0-.13-2,2.43,2.43,0,0,0-.49-1.21,2,2,0,0,0-1.08-.6,13.44,13.44,0,0,0-1.84-.23v-1.34h11.11c3.26,0,5.77.6,7.56,1.8A5.75,5.75,0,0,1,291.89,468.45Zm-14.09,5.73h2.52a8.71,8.71,0,0,0,5.25-1.29c1.15-.86,1.72-2.28,1.72-4.27a5.35,5.35,0,0,0-1.36-4.1,6.19,6.19,0,0,0-4.27-1.24h-3.25a.53.53,0,0,0-.61.6Z"/><path class="cls-8" d="M308.2,469.54a10.72,10.72,0,0,1,4.07.77,10.51,10.51,0,0,1,3.27,2.11,9.76,9.76,0,0,1,3,7.06,8.85,8.85,0,0,1-.81,3.76,9.43,9.43,0,0,1-2.19,3.06,10.34,10.34,0,0,1-3.27,2.06,11.23,11.23,0,0,1-8.07,0,10.34,10.34,0,0,1-3.27-2.06,9.61,9.61,0,0,1-2.2-3.06,9,9,0,0,1-.8-3.76,9.64,9.64,0,0,1,.79-3.92,9.89,9.89,0,0,1,2.18-3.14,10.51,10.51,0,0,1,3.27-2.11A10.71,10.71,0,0,1,308.2,469.54Zm0,18.21a7.27,7.27,0,0,0,2.94-.57,6.22,6.22,0,0,0,2.23-1.63,7.37,7.37,0,0,0,1.42-2.59,11,11,0,0,0,.5-3.41,12.1,12.1,0,0,0-.5-3.58,8.06,8.06,0,0,0-1.41-2.72,6.22,6.22,0,0,0-2.23-1.74,7.53,7.53,0,0,0-5.89,0,6.22,6.22,0,0,0-2.23,1.74,8.08,8.08,0,0,0-1.42,2.72,12.11,12.11,0,0,0-.49,3.58,11,11,0,0,0,.49,3.41,7.53,7.53,0,0,0,1.42,2.59,6.05,6.05,0,0,0,2.23,1.63A7.27,7.27,0,0,0,308.2,487.75Z"/><path class="cls-8" d="M321.36,483h.91a6.26,6.26,0,0,0,.66,2,5.17,5.17,0,0,0,1.21,1.51,5.5,5.5,0,0,0,1.69,1,6.22,6.22,0,0,0,2.06.33,4.44,4.44,0,0,0,2.9-.87,2.86,2.86,0,0,0,1.07-2.35,3,3,0,0,0-.21-1.14,2.93,2.93,0,0,0-.71-1,6.84,6.84,0,0,0-1.32-1,22.28,22.28,0,0,0-2.1-1,24.4,24.4,0,0,1-2.57-1.29,7,7,0,0,1-1.66-1.29,4,4,0,0,1-.88-1.42,5.4,5.4,0,0,1-.26-1.72,5.23,5.23,0,0,1,.41-2.11,4.85,4.85,0,0,1,1.15-1.67,5,5,0,0,1,1.76-1.09,6.14,6.14,0,0,1,2.23-.39,5.89,5.89,0,0,1,2,.35,6.65,6.65,0,0,1,1.9,1.12l.65-1.12h.57l.27,4.93h-.91a6.31,6.31,0,0,0-1.73-3,4,4,0,0,0-2.71-1,3.64,3.64,0,0,0-2.4.74,2.47,2.47,0,0,0-.89,2,2.83,2.83,0,0,0,.19,1.07,2.78,2.78,0,0,0,.65.92,6.47,6.47,0,0,0,1.16.87,15.57,15.57,0,0,0,1.79.9,34,34,0,0,1,3,1.53,9.85,9.85,0,0,1,1.94,1.41,4.3,4.3,0,0,1,1,1.48,4.87,4.87,0,0,1,.3,1.75,5.21,5.21,0,0,1-1.88,4.06,6.37,6.37,0,0,1-2.14,1.15,8.39,8.39,0,0,1-2.72.41,7.74,7.74,0,0,1-2.54-.39,8,8,0,0,1-2.29-1.34l-.69,1.21h-.57Z"/><path class="cls-8" d="M342.34,484.18a16.6,16.6,0,0,0,.09,2,2.49,2.49,0,0,0,.39,1.11,1.35,1.35,0,0,0,.82.53,7,7,0,0,0,1.4.14v.95h-8v-.95a6.28,6.28,0,0,0,1.4-.16,1.51,1.51,0,0,0,.83-.51,2.12,2.12,0,0,0,.4-1.05,14.74,14.74,0,0,0,.09-1.84V474.3a13.77,13.77,0,0,0-.08-1.72,2.64,2.64,0,0,0-.35-1.08,1.39,1.39,0,0,0-.75-.56,6.18,6.18,0,0,0-1.29-.21v-.94h7.53v.94a4.58,4.58,0,0,0-1.28.2,1.44,1.44,0,0,0-.74.58,2.84,2.84,0,0,0-.35,1.13,15.53,15.53,0,0,0-.08,1.83Z"/><path class="cls-8" d="M352.62,478.39a14,14,0,0,0,2.24-.16,3.9,3.9,0,0,0,1.43-.51,2,2,0,0,0,.77-.89,3.23,3.23,0,0,0,.24-1.29h.86v6.76h-.86a3.63,3.63,0,0,0-.21-1.29,1.91,1.91,0,0,0-.75-.9,4.07,4.07,0,0,0-1.43-.55,12.13,12.13,0,0,0-2.29-.18V485a4,4,0,0,0,.19,1.35,1.85,1.85,0,0,0,.68.86,3.11,3.11,0,0,0,1.28.47,11.88,11.88,0,0,0,2,.14,11,11,0,0,0,2.23-.19,3.8,3.8,0,0,0,1.53-.63,3.24,3.24,0,0,0,1-1.17,7.72,7.72,0,0,0,.62-1.82H363l-.37,4.88H347.29v-.95a7.13,7.13,0,0,0,1.4-.14,1.77,1.77,0,0,0,.83-.43,1.51,1.51,0,0,0,.4-.84,8.9,8.9,0,0,0,.09-1.41V473.56a8.86,8.86,0,0,0-.08-1.4,1.71,1.71,0,0,0-.35-.84,1.33,1.33,0,0,0-.75-.43,10.24,10.24,0,0,0-1.29-.16v-.94h14.31l.23,4.36h-.87a5.19,5.19,0,0,0-.48-1.62,2.61,2.61,0,0,0-.92-1,3.92,3.92,0,0,0-1.47-.52,13.36,13.36,0,0,0-2.16-.15H353a.37.37,0,0,0-.42.42Z"/><path class="cls-8" d="M375.66,488.87v-1.35a12.15,12.15,0,0,0,2.21-.21,2.6,2.6,0,0,0,1.27-.6,2.21,2.21,0,0,0,.6-1.21,10,10,0,0,0,.16-2V467a13.35,13.35,0,0,0-.12-2,2.44,2.44,0,0,0-.5-1.21,1.9,1.9,0,0,0-1.07-.6,13.65,13.65,0,0,0-1.84-.23v-1.34H387a13.69,13.69,0,0,1,7.43,1.7,5.35,5.35,0,0,1,2.65,4.77,5.23,5.23,0,0,1-1.47,3.83,11,11,0,0,1-4.65,2.44v.14c.73.07,1.37.15,1.91.25a11.61,11.61,0,0,1,1.45.33,7.39,7.39,0,0,1,1.19.48,10.79,10.79,0,0,1,1.07.64,6.63,6.63,0,0,1,3.15,5.59,6.22,6.22,0,0,1-1,3.48,7.09,7.09,0,0,1-2.92,2.53,6.39,6.39,0,0,1-1.24.52,9.79,9.79,0,0,1-1.48.31,17.07,17.07,0,0,1-2,.18c-.74,0-1.62.06-2.63.06Zm9.94-15.22c.73,0,1.35,0,1.84,0a10,10,0,0,0,1.27-.12,4.41,4.41,0,0,0,.94-.25,3.94,3.94,0,0,0,.83-.44,4.07,4.07,0,0,0,1.61-1.7,5.94,5.94,0,0,0,.48-2.58,5.18,5.18,0,0,0-1.36-4,6.28,6.28,0,0,0-4.26-1.22h-2.73a.53.53,0,0,0-.6.6v9.77Zm2.9,13.69c4.27,0,6.41-1.82,6.41-5.48a5.69,5.69,0,0,0-3.29-5.59c-.38-.17-.75-.31-1.1-.43a7.26,7.26,0,0,0-1.24-.26c-.47-.06-1-.1-1.68-.13s-1.45,0-2.39,0h-1.59v7.89a3.84,3.84,0,0,0,1.13,3.1A6,6,0,0,0,388.5,487.34Z"/><path class="cls-8" d="M417.75,474.57a4.71,4.71,0,0,1-1.19,3.3,6.44,6.44,0,0,1-3.79,1.76l5.48,6.58a3.94,3.94,0,0,0,1.47,1.18,7.41,7.41,0,0,0,1.92.53v.95h-4.78l-6.07-7.78a4.13,4.13,0,0,0-.61-.67,2.12,2.12,0,0,0-.59-.38,2.24,2.24,0,0,0-.72-.18c-.27,0-.6,0-1,0V485a8.49,8.49,0,0,0,.11,1.49,1.6,1.6,0,0,0,.48.91,2,2,0,0,0,1,.43,10.84,10.84,0,0,0,1.79.11v.95h-8.74v-.95a7.13,7.13,0,0,0,1.4-.14,1.77,1.77,0,0,0,.83-.43,1.44,1.44,0,0,0,.39-.84,7.72,7.72,0,0,0,.1-1.41V473.56a10.26,10.26,0,0,0-.08-1.4,1.71,1.71,0,0,0-.35-.84,1.35,1.35,0,0,0-.76-.43,10.29,10.29,0,0,0-1.28-.16v-.94h7.77a9.34,9.34,0,0,1,5.29,1.27A4,4,0,0,1,417.75,474.57Zm-9.86,4h1.76a6.06,6.06,0,0,0,3.68-.91,3.49,3.49,0,0,0,1.2-3,3.77,3.77,0,0,0-.95-2.88,4.39,4.39,0,0,0-3-.86h-2.28a.37.37,0,0,0-.42.42Z"/><path class="cls-8" d="M432.22,469.54a10.71,10.71,0,0,1,4.06.77,10.51,10.51,0,0,1,3.27,2.11,9.89,9.89,0,0,1,2.18,3.14,9.64,9.64,0,0,1,.79,3.92,9,9,0,0,1-.8,3.76,9.61,9.61,0,0,1-2.2,3.06,10.34,10.34,0,0,1-3.27,2.06,11.23,11.23,0,0,1-8.07,0,10.34,10.34,0,0,1-3.27-2.06,9.58,9.58,0,0,1-2.19-3.06,8.85,8.85,0,0,1-.81-3.76,9.76,9.76,0,0,1,3-7.06,10.44,10.44,0,0,1,3.28-2.11A10.63,10.63,0,0,1,432.22,469.54Zm0,18.21a7.19,7.19,0,0,0,2.93-.57,6.22,6.22,0,0,0,2.23-1.63,7.38,7.38,0,0,0,1.43-2.59,11,11,0,0,0,.49-3.41,12.11,12.11,0,0,0-.49-3.58,8.08,8.08,0,0,0-1.42-2.72,6.28,6.28,0,0,0-2.22-1.74,7.55,7.55,0,0,0-5.9,0,6.22,6.22,0,0,0-2.23,1.74,8.06,8.06,0,0,0-1.41,2.72,12.1,12.1,0,0,0-.5,3.58,11,11,0,0,0,.5,3.41,7.51,7.51,0,0,0,1.41,2.59,6.05,6.05,0,0,0,2.23,1.63A7.32,7.32,0,0,0,432.22,487.75Z"/><path class="cls-8" d="M463.87,485.12l3.87-10.74c.23-.65.39-1.16.49-1.54a4,4,0,0,0,.15-1A.92.92,0,0,0,468,471a3.07,3.07,0,0,0-1.45-.24v-.94h6v.94a2.71,2.71,0,0,0-1.72.47,3.59,3.59,0,0,0-1,1.54l-6.22,16.37h-.86L458,475l-5.27,14.09h-.87l-5.15-14.21c-.3-.8-.57-1.46-.81-2a4.78,4.78,0,0,0-.77-1.27,2.25,2.25,0,0,0-.92-.67,3.64,3.64,0,0,0-1.27-.2v-1H451v1a4.8,4.8,0,0,0-1.77.22.86.86,0,0,0-.51.87,3.09,3.09,0,0,0,.1.74,9,9,0,0,0,.29,1l3.77,11.47,3.05-8.57c.23-.64.45-1.24.68-1.8s.4-1.05.53-1.49c-.23-.48-.44-.88-.63-1.19a3.75,3.75,0,0,0-.57-.75,1.64,1.64,0,0,0-.6-.38,2,2,0,0,0-.65-.11v-1h7.58v1c-.48,0-.87,0-1.17.05a2.06,2.06,0,0,0-.68.16.64.64,0,0,0-.32.31,1.13,1.13,0,0,0-.09.47,3.74,3.74,0,0,0,.14.9c.09.36.22.81.38,1.35Z"/><path class="cls-8" d="M489.53,489.11l-11.76-15.5h-.1v10.57a16.6,16.6,0,0,0,.09,2,2.51,2.51,0,0,0,.34,1.11,1.25,1.25,0,0,0,.75.53,5.81,5.81,0,0,0,1.27.14v.95h-6.66v-.95a6.28,6.28,0,0,0,1.4-.16,1.51,1.51,0,0,0,.83-.51,2,2,0,0,0,.39-1.05,12.77,12.77,0,0,0,.1-1.84V474.3a16,16,0,0,0-.08-1.72,2.64,2.64,0,0,0-.35-1.08,1.42,1.42,0,0,0-.76-.56,6.18,6.18,0,0,0-1.28-.21v-.94h4.9l10.82,14.44h.1v-9.76c0-.8,0-1.45-.08-1.94a2.74,2.74,0,0,0-.35-1.13,1.21,1.21,0,0,0-.74-.52,6.51,6.51,0,0,0-1.28-.15v-.94h6.67v.94a6.84,6.84,0,0,0-1.4.16,1.55,1.55,0,0,0-.83.51,2.14,2.14,0,0,0-.4,1.07,12.81,12.81,0,0,0-.1,1.83v14.81Z"/><path class="cls-8" d="M189.24,499h6.34c.09,0,.14.05.14.16v.74c0,.11-.06.17-.18.17h-4.9c-.13,0-.19.06-.19.17v3.55a.14.14,0,0,0,.16.16h3.84c.11,0,.16,0,.16.14v.76c0,.09-.05.13-.16.13h-3.84a.14.14,0,0,0-.16.16v4.37a.18.18,0,0,1-.2.19h-1a.18.18,0,0,1-.21-.21V499.16C189.06,499,189.12,499,189.24,499Z"/><path class="cls-8" d="M213.36,509.17a4.08,4.08,0,0,1-1.58-1.86,7.11,7.11,0,0,1-.55-3,7.34,7.34,0,0,1,.56-3,4.22,4.22,0,0,1,1.59-1.88,4.87,4.87,0,0,1,4.86,0,4.16,4.16,0,0,1,1.57,1.87,8.28,8.28,0,0,1,0,6,4.14,4.14,0,0,1-1.58,1.86,4.51,4.51,0,0,1-2.44.64A4.57,4.57,0,0,1,213.36,509.17Zm4.79-1.5a5.66,5.66,0,0,0,.78-3.32,5.91,5.91,0,0,0-.79-3.39,3,3,0,0,0-4.68,0,5.89,5.89,0,0,0-.79,3.38,5.7,5.7,0,0,0,.79,3.32,2.75,2.75,0,0,0,2.37,1.08A2.66,2.66,0,0,0,218.15,507.67Z"/><path class="cls-8" d="M244.24,508.2a2.68,2.68,0,0,1-1.3,1.21,5.13,5.13,0,0,1-2.11.39,4.81,4.81,0,0,1-2.2-.43,2.72,2.72,0,0,1-1.26-1.31,5.33,5.33,0,0,1-.4-2.21v-6.69c0-.13.06-.2.17-.2h1c.11,0,.17.06.17.19v7a2.27,2.27,0,0,0,2.57,2.58,3.24,3.24,0,0,0,1.42-.28,1.88,1.88,0,0,0,.88-.86,3.33,3.33,0,0,0,.29-1.48v-7c0-.13.05-.19.16-.19h.85c.11,0,.16.06.16.17v7A4.48,4.48,0,0,1,244.24,508.2Z"/><path class="cls-8" d="M269.7,499a.15.15,0,0,1,.16.17v10.35a.17.17,0,0,1-.05.13.22.22,0,0,1-.14.05H269l-.16,0a.28.28,0,0,1-.14-.1l-5.56-8.08q-.08-.1-.12-.09s0,0,0,.1v8a.18.18,0,0,1-.2.19h-.81a.17.17,0,0,1-.19-.19V499.16c0-.13.06-.2.19-.2h.82l.17,0a.32.32,0,0,1,.13.13l5.41,7.91c.06.06.11.09.15.07a.12.12,0,0,0,.06-.12v-7.84c0-.11.06-.17.18-.17Z"/><path class="cls-8" d="M287.7,499h1.83a7.69,7.69,0,0,1,3.23.63,3.75,3.75,0,0,1,1.8,1.76,7.51,7.51,0,0,1-.05,5.86,3.91,3.91,0,0,1-1.9,1.82,7.59,7.59,0,0,1-3.23.61h-2.11q-.21,0-.21-.24V499.16a.25.25,0,0,1,.05-.15.26.26,0,0,1,.17-.05Zm.75,1.26v8.24c0,.11.05.16.17.16h.55a6.54,6.54,0,0,0,2.59-.43,2.79,2.79,0,0,0,1.46-1.37,7.08,7.08,0,0,0,0-5.1,2.72,2.72,0,0,0-1.47-1.32,6.87,6.87,0,0,0-2.5-.39h-.65C288.5,500,288.45,500.08,288.45,500.22Z"/><path class="cls-8" d="M310.53,509.59a.27.27,0,0,1,0-.18l3.73-10.25a.56.56,0,0,1,.1-.15.31.31,0,0,1,.19-.05h1.12a.31.31,0,0,1,.33.22l3.69,10.23a.2.2,0,0,1,0,.17.13.13,0,0,1-.13.08h-1a.23.23,0,0,1-.23-.15l-1-2.8-.06-.08a.16.16,0,0,0-.11,0h-4.2a.18.18,0,0,0-.17.11l-1,2.82a.2.2,0,0,1-.07.09.27.27,0,0,1-.15,0h-.86A.16.16,0,0,1,310.53,509.59Zm6.22-4.09c.12,0,.15-.06.12-.18l-1.73-4.74c0-.09-.08-.13-.11-.13s-.07,0-.09.13l-1.76,4.77c-.05.1,0,.15.08.15Z"/><path class="cls-8" d="M333.83,499.12a.16.16,0,0,1,0-.12.18.18,0,0,1,.13,0h7.75a.2.2,0,0,1,.13,0,.17.17,0,0,1,.05.12v.75c0,.1-.06.14-.18.14h-2.92c-.11,0-.16.05-.16.15v9.31c0,.12-.06.19-.17.19h-1c-.11,0-.17-.07-.17-.19v-9.3a.14.14,0,0,0-.15-.16H334c-.11,0-.17,0-.17-.14Z"/><path class="cls-8" d="M359.54,499c.11,0,.17.06.17.19v10.26c0,.1,0,.16-.06.19a.25.25,0,0,1-.2.06h-.91a.25.25,0,0,1-.17-.05.22.22,0,0,1,0-.16V499.16c0-.13.06-.2.17-.2Z"/><path class="cls-8" d="M378.58,509.17a4.12,4.12,0,0,1-1.57-1.86,7.11,7.11,0,0,1-.55-3,7.34,7.34,0,0,1,.56-3,4.16,4.16,0,0,1,1.59-1.88,4.87,4.87,0,0,1,4.86,0,4.16,4.16,0,0,1,1.57,1.87,8.28,8.28,0,0,1,0,6,4.14,4.14,0,0,1-1.58,1.86,4.51,4.51,0,0,1-2.44.64A4.6,4.6,0,0,1,378.58,509.17Zm4.8-1.5a5.67,5.67,0,0,0,.77-3.32,5.91,5.91,0,0,0-.78-3.39,3,3,0,0,0-4.68,0,5.81,5.81,0,0,0-.79,3.38,5.62,5.62,0,0,0,.79,3.32,2.75,2.75,0,0,0,2.37,1.08A2.66,2.66,0,0,0,383.38,507.67Z"/><path class="cls-8" d="M410.3,499a.15.15,0,0,1,.16.17v10.35a.15.15,0,0,1-.06.13.17.17,0,0,1-.13.05h-.71l-.16,0a.25.25,0,0,1-.14-.1l-5.56-8.08q-.07-.1-.12-.09s0,0,0,.1v8a.18.18,0,0,1-.2.19h-.81a.17.17,0,0,1-.19-.19V499.16c0-.13.06-.2.19-.2h.82l.17,0a.39.39,0,0,1,.13.13l5.41,7.91c.06.06.11.09.15.07a.12.12,0,0,0,.06-.12v-7.84c0-.11.06-.17.18-.17Z"/></g></svg>