<svg xmlns="http://www.w3.org/2000/svg" xmlns:xlink="http://www.w3.org/1999/xlink" viewBox="0 0 600 600"><defs><style>.cls-1{fill:none;}.cls-2{clip-path:url(#clip-path);}.cls-3,.cls-7{fill:#ed1e24;}.cls-3,.cls-4,.cls-5,.cls-6{fill-rule:evenodd;}.cls-4{fill:#049998;}.cls-5{fill:#f37321;}.cls-6{fill:#42b649;}.cls-8{fill:#fff;stroke:gray;stroke-miterlimit:10;stroke-width:0.5px;}</style><clipPath id="clip-path"><rect class="cls-1" x="90.5" y="54.36" width="419" height="419"/></clipPath></defs><g id="New_Icon" data-name="New Icon"><g class="cls-2"><g class="cls-2"><path class="cls-3" d="M300.41,146.67a49.94,49.94,0,1,1-50.08,49.94,50,50,0,0,1,50.08-49.94"/><path class="cls-4" d="M167.87,251.34a29,29,0,1,1-15.26,38,29.1,29.1,0,0,1,15.26-38"/><path class="cls-5" d="M430.88,249.47a29,29,0,1,1-38.16,15.22,29,29,0,0,1,38.16-15.22"/><path class="cls-5" d="M362.42,340.51c-.46-1.73-1.27-4.8-1.68-6.62-.59-2.62-1.07-5.31-1.53-7.92-.69-3.89-.73-6.1-1.35-11.5-.39-3.42-.57-7-.89-10.53a85.4,85.4,0,0,1,0-14.32c.14-1.91.12-4.14.31-6.2.27-2.81.91-7.58,1.31-10.69.34-2.67.59-5.34,1.08-8,.52-2.86,1.32-6.14,2.07-9.2.87-3.57,2-8.37,3.15-12.25,1.11-3.72,2.36-7.42,3.8-11,1.56-3.9,3.72-10.5,5.56-12.39a7.15,7.15,0,0,1,2.21-1.87,7.29,7.29,0,0,1,2.45-.74,5.5,5.5,0,0,1,2.07.09,7.22,7.22,0,0,1,1.84.47c.66.27,1.28.59,1.82.86a6.7,6.7,0,0,1,2.44,2,12,12,0,0,1,1.67,3.76,5.61,5.61,0,0,1-.31,2.92c-.88,2.4-3.85,8.32-4.94,11.48a46.88,46.88,0,0,0-1.59,7.53c-.49,3-1.14,6.94-1.33,10.21a52.32,52.32,0,0,0,.17,9.45,71.4,71.4,0,0,0,2.1,9.34c.83,3.17,1.49,6.61,2.89,9.67a66.5,66.5,0,0,0,6.67,11.29,34.37,34.37,0,0,0,7.18,6.82,35.31,35.31,0,0,0,8.59,4.61,36.05,36.05,0,0,0,9.31,1.87,35.6,35.6,0,0,0,8.68-.51A71,71,0,0,0,437,306.25a54.35,54.35,0,0,0,10.18-4.55,68.65,68.65,0,0,0,11.41-8.49,58.94,58.94,0,0,0,9.68-11.57c3-5,6.28-15.33,8.59-18.36a5.69,5.69,0,0,1,3.09-1.73,8.78,8.78,0,0,1,3.86-.22,8.24,8.24,0,0,1,7,6.05,7.4,7.4,0,0,1,.17,4.53c-1.13,3.35-4.7,11.12-6.92,15.56-1.91,3.82-4.16,7.46-6.42,11.09-2.8,4.51-6.52,10.92-10.38,16A131.3,131.3,0,0,1,453.1,330.7c-3.32,3.08-6.89,6.33-11.76,10.47-5.29,4.49-11.78,9.59-15,11.85-2.11,1.48-4.33,3.07-6.61,4.44-1.58,1-4.56,2.56-6.64,3.66a248.43,248.43,0,0,0-50.67-20.61"/><path class="cls-4" d="M184.91,362.53c-1.41-.78-3-1.68-4.1-2.33-2.31-1.38-4.59-2.89-6.81-4.35-3.3-2.19-4.93-3.69-9.28-7-2.75-2.07-5.49-4.43-8.26-6.62a84.71,84.71,0,0,1-10.4-9.88c-1.29-1.41-2.93-2.93-4.29-4.5-1.86-2.13-4.88-5.88-6.87-8.31-1.69-2.08-3.46-4.11-5.05-6.28-1.71-2.36-3.54-5.2-5.24-7.84-2-3.09-4.71-7.21-6.73-10.72s-3.76-6.82-5.39-10.36c-1.76-3.82-5.07-9.93-5.16-12.56a6.85,6.85,0,0,1,.17-2.88,7,7,0,0,1,1.15-2.28,5.61,5.61,0,0,1,1.48-1.43,7.88,7.88,0,0,1,1.62-1c.64-.29,1.31-.51,1.87-.72a6.81,6.81,0,0,1,3.13-.39,11.62,11.62,0,0,1,3.88,1.39,5.42,5.42,0,0,1,1.9,2.23c1.14,2.29,3.39,8.52,4.94,11.49a46.27,46.27,0,0,0,4.37,6.33c1.81,2.39,4.25,5.61,6.5,8a52.19,52.19,0,0,0,7,6.39,71.36,71.36,0,0,0,8.23,4.93,60.59,60.59,0,0,0,9,4.58,67.6,67.6,0,0,0,12.79,3,35,35,0,0,0,9.91-.48,34.44,34.44,0,0,0,22.67-15.08,71.68,71.68,0,0,0,5.42-9.82,54.62,54.62,0,0,0,3.71-10.5,67.85,67.85,0,0,0,1.7-14.08,58.41,58.41,0,0,0-1.73-15c-1.52-5.64-6.8-15.11-7.4-18.87a5.59,5.59,0,0,1,.88-3.42,8.66,8.66,0,0,1,2.49-3,8.27,8.27,0,0,1,9.25-.9,7.39,7.39,0,0,1,3.41,3c1.65,3.12,4.83,11.06,6.52,15.73,1.46,4,2.55,8.15,3.64,12.27,1.34,5.13,3.43,12.25,4.42,18.51a130,130,0,0,1,1.93,21.44c-.05,4.52-.15,9.34-.5,15.71-.39,6.92-1.16,15.12-1.74,19-.38,2.54-.75,5.25-1.33,7.83-.4,1.77-1.26,4.94-1.88,7.2a284.4,284.4,0,0,0-51.82,21.47"/><path class="cls-3" d="M253.5,336.64c-1.95-2.49-5-6.37-6.71-8.78-1.3-1.8-2.56-3.63-3.81-5.47.9-8.14,3.13-33-.09-54.31-3-19.91-14.91-45.6-15.09-46-2-3.88-8.09-6-13-4.45a10.39,10.39,0,0,0-7.37,10.39c-.15,5.26,7.36,15.81,8.68,23.44,1,5.9.11,16.62-.44,21.85-2.35-5.34-3.95-9.92-5.05-13.07s-2.63-6.63-3.72-10c-1.49-4.64-3.72-12.63-5.22-17.82-1.27-4.45-2.69-8.86-3.72-13.37-1.12-4.89-2.08-10.63-3-16-1.05-6.25-2.54-14.6-3.35-21.53-.77-6.66-1.32-13.35-1.49-20-.18-7.24-1.26-19.16.37-23.39a12.24,12.24,0,0,1,2.24-4.46,12.46,12.46,0,0,1,3.37-2.82,9.64,9.64,0,0,1,3.33-1.26,13,13,0,0,1,3.25-.5c1.22,0,2.42.06,3.45.13a11.68,11.68,0,0,1,5.22,1.48,20.72,20.72,0,0,1,5.21,4.83,9.56,9.56,0,0,1,1.49,4.83c.25,4.39-.44,15.78,0,21.53a78.37,78.37,0,0,0,2.61,13c1.24,5,2.91,11.75,4.84,17.08a90.85,90.85,0,0,0,6.7,14.85c2.73,4.7,6.3,9,9.68,13.36s6.87,9.46,11.17,13.37a115.63,115.63,0,0,0,18.25,13.37,59.79,59.79,0,0,0,16,5.94,59.52,59.52,0,0,0,46.17-8.54,123.1,123.1,0,0,0,15.26-11.88,94.65,94.65,0,0,0,13-14.11,118.61,118.61,0,0,0,12.28-21.17,101.22,101.22,0,0,0,7.45-24.87c1.43-10-.48-28.54,1.12-34.9.51-2,2.14-3.55,3.72-4.83a15,15,0,0,1,6-3,14.21,14.21,0,0,1,15.27,4.83,12.8,12.8,0,0,1,3.35,7.05c.49,6.07.12,20.79-.38,29.33-.42,7.34-1.5,14.64-2.6,21.91-1.37,9-2.9,21.71-5.59,32.3-2.85,11.26-6.46,23.81-11.54,35.27-1.83,4.14-3.77,8.43-6,13.23-.93-5-1.8-10.88-1.67-14.86-.33-17.59,7.12-28.92,7.41-32.37.72-3.16-2.42-10-9.18-10.7-6.57-.66-9.16,3.38-11.12,7.26-3.59,7.11-10.18,25-14,45.88-3.4,18.58-.38,55-.38,55l-8.91,13a237.77,237.77,0,0,0-49.74-5.23,200.58,200.58,0,0,0-43.79,5.16"/><path class="cls-6" d="M148.49,398.4a368.47,368.47,0,0,1,70.73-30.83c25.71-8,57.48-11.57,77.59-11.5,21.64.08,53.32,2,82.62,11,39.75,12.21,75.13,32.48,75.13,32.48s-27.45-24.77-69.1-41.42c-27.93-11.16-50.36-16.21-88.65-16.5-33.14-.25-56.73,6.83-85.92,18.53-38.66,15.51-62.4,38.28-62.4,38.28"/></g></g></g><g id="White_Outlines" data-name="White Outlines"><path class="cls-7" d="M105.63,411.19h26.3c.52,0,.78.3.78.89l-.05,4.7a1,1,0,0,1-1.1,1.09H114.91q-1,0-1,.84v7.56c0,.6.26.89.79.89h11.06c.59,0,.89.28.89.84v5a.8.8,0,0,1-.19.53.83.83,0,0,1-.65.21H114.65c-.48,0-.73.2-.73.62v8.19c0,.46.19.68.58.68h17.84c.63,0,.94.26.94.78v5a1,1,0,0,1-.23.68,1,1,0,0,1-.81.26h-26.3c-.77,0-1.15-.36-1.15-1.09V412.18Q104.79,411.19,105.63,411.19Z"/><path class="cls-7" d="M164.3,449.52q-.08.39-1,.39h-6.68a1.92,1.92,0,0,1-1.77-.83l-5.38-7.57q-.42-.63-.6-.63c-.12,0-.34.2-.65.58l-5.48,7.62a1.88,1.88,0,0,1-1.72.83h-4.28a1.35,1.35,0,0,1-1.2-.47q-.32-.46.57-1.62l8.56-11A1.38,1.38,0,0,0,145,436a1.8,1.8,0,0,0-.34-.8l-8.46-11.48a.92.92,0,0,1-.15-1,.91.91,0,0,1,.94-.5h6.36a2.46,2.46,0,0,1,1.05.19,1.51,1.51,0,0,1,.62.65l4.86,6.84c.31.48.6.48.88,0l4.59-6.84a1.93,1.93,0,0,1,.66-.65,2.35,2.35,0,0,1,1.07-.19h4.69c.52,0,.81.13.86.37a1,1,0,0,1-.28.84L154.57,434a1.06,1.06,0,0,0-.31.78,2.17,2.17,0,0,0,.36.78l9.08,12.58Q164.39,449.13,164.3,449.52Z"/><path class="cls-7" d="M177.74,427.79c-.38,0-.57.21-.57.62V441a3.28,3.28,0,0,0,.83,2.53,3.91,3.91,0,0,0,2.66.76h2.82a.66.66,0,0,1,.57.26,1,1,0,0,1,.21.62l0,3.19c0,.66-.38,1.07-1.15,1.25q-.93.11-2,.18c-.71.05-1.42.09-2.14.1l-2.06,0a8.62,8.62,0,0,1-5.63-1.7,6.09,6.09,0,0,1-2.09-5V428.57c0-.52-.23-.78-.68-.78h-3.18c-.66,0-1-.3-1-.89V423c0-.52.31-.79.94-.79h3.6c.31,0,.48-.19.52-.57l.73-7.93c0-.59.3-.89.78-.89h5.69q.84,0,.84,1v7.83a.46.46,0,0,0,.52.52h5.48c.62,0,.94.28.94.84v3.86c0,.59-.35.89-1,.89Z"/><path class="cls-7" d="M188.91,449.65a1,1,0,0,1-.26-.78V423.25c0-.66.27-1,.83-1h6.11c.55,0,.83.3.83.89v3.08a.36.36,0,0,0,.24.39c.15.05.32,0,.49-.23a12.93,12.93,0,0,1,2.38-2.46,11.36,11.36,0,0,1,2.74-1.61,6.88,6.88,0,0,1,2.66-.58c1.25,0,1.87.3,1.87.89v6.05c0,.56-.26.79-.78.68a10.25,10.25,0,0,0-1.93-.34c-.66-.05-1.23-.08-1.72-.08a5.89,5.89,0,0,0-2,.37,6.25,6.25,0,0,0-1.85,1,6.85,6.85,0,0,0-1.36,1.46,3,3,0,0,0-.52,1.67v15.24q0,1.2-1.35,1.2h-5.59A1.1,1.1,0,0,1,188.91,449.65Z"/><path class="cls-7" d="M221.39,449.57a11.54,11.54,0,0,1-4.62.86,8.7,8.7,0,0,1-6.23-2.14,7.16,7.16,0,0,1-2.27-5.48,7.73,7.73,0,0,1,1.82-5.11,11.91,11.91,0,0,1,5.22-3.42A25.76,25.76,0,0,1,223.4,433l1.83-.15a1.17,1.17,0,0,0,.57-.16.62.62,0,0,0,.26-.57V431a4.14,4.14,0,0,0-1.15-3.11,4.54,4.54,0,0,0-3.29-1.12,6.75,6.75,0,0,0-3,.71,5.86,5.86,0,0,0-2.42,2.42.89.89,0,0,1-.37.47,1.4,1.4,0,0,1-.78,0l-5.22-1.2a.71.71,0,0,1-.44-.34c-.09-.15,0-.49.18-1a8.64,8.64,0,0,1,4.51-4.57,18.8,18.8,0,0,1,7.91-1.49,17.84,17.84,0,0,1,6.89,1.1,7.56,7.56,0,0,1,3.7,3.05,8.84,8.84,0,0,1,1.15,4.57v18.31a1.43,1.43,0,0,1-.21.89.94.94,0,0,1-.78.26h-5.38a.83.83,0,0,1-.8-.42,2.37,2.37,0,0,1-.29-1l-.11-1.15c-.07-.62-.45-.64-1.14-.05A13.06,13.06,0,0,1,221.39,449.57Zm3.89-12.86-1.46.1a13.44,13.44,0,0,0-2.72.4,10.47,10.47,0,0,0-2.45.93,5.7,5.7,0,0,0-1.8,1.52,3.35,3.35,0,0,0-.7,2.11,3.06,3.06,0,0,0,1.09,2.48,4.59,4.59,0,0,0,3,.91,6.23,6.23,0,0,0,2.32-.41,7.16,7.16,0,0,0,1.75-1,7.33,7.33,0,0,0,1.25-1.35,2.46,2.46,0,0,0,.47-1.41V437.6C226.06,437,225.8,436.71,225.28,436.71Z"/><path class="cls-8" d="M245,448.61a13,13,0,0,1-4.94-5,14.92,14.92,0,0,1-1.77-7.33,15.23,15.23,0,0,1,1.83-7.59,13,13,0,0,1,5-5.09,15.27,15.27,0,0,1,14.55,0,12.84,12.84,0,0,1,4.88,5.11,15.54,15.54,0,0,1,1.75,7.49,15,15,0,0,1-1.77,7.38,13,13,0,0,1-4.93,5,14.38,14.38,0,0,1-7.34,1.82A14.22,14.22,0,0,1,245,448.61Zm10.56-4.52a6.07,6.07,0,0,0,2-3,16.57,16.57,0,0,0,.65-5,16.82,16.82,0,0,0-.65-5.08,6.33,6.33,0,0,0-2-3.06,5.5,5.5,0,0,0-6.44,0,6.33,6.33,0,0,0-2,3.06,16.12,16.12,0,0,0-.68,5.08,15.82,15.82,0,0,0,.68,5,6.06,6.06,0,0,0,2,3,5.59,5.59,0,0,0,6.44,0Z"/><path class="cls-8" d="M271,449.65a1.06,1.06,0,0,1-.26-.78V423.25c0-.66.28-1,.83-1h6.11c.55,0,.83.3.83.89v3.08a.36.36,0,0,0,.24.39c.15.05.32,0,.49-.23a12.93,12.93,0,0,1,2.38-2.46,11.55,11.55,0,0,1,2.74-1.61,6.92,6.92,0,0,1,2.66-.58c1.25,0,1.88.3,1.88.89v6.05c0,.56-.26.79-.79.68a10.25,10.25,0,0,0-1.93-.34c-.66-.05-1.23-.08-1.72-.08a5.83,5.83,0,0,0-1.95.37,6.3,6.3,0,0,0-1.86,1,6.79,6.79,0,0,0-1.35,1.46,3,3,0,0,0-.53,1.67v15.24q0,1.2-1.35,1.2h-5.59A1.1,1.1,0,0,1,271,449.65Z"/><path class="cls-8" d="M310.57,449.68a.91.91,0,0,1-.34-.81v-1.46q0-.37-.21-.42a.63.63,0,0,0-.52.21,21.84,21.84,0,0,1-1.88,1.54,9.2,9.2,0,0,1-2.45,1.22,11.24,11.24,0,0,1-8.93-1.09,10.54,10.54,0,0,1-3.86-4.72,19.32,19.32,0,0,1-1.41-7.86,17.81,17.81,0,0,1,1.54-7.64,12.63,12.63,0,0,1,4.15-5.09,9.77,9.77,0,0,1,5.74-1.83,9.5,9.5,0,0,1,3.7.68,10.68,10.68,0,0,1,3.14,2.09c.27.21.49.29.65.23s.23-.27.23-.65V412.13c0-.62.28-.94.84-.94h6.36q.84,0,.84,1v36.64a1.15,1.15,0,0,1-.26.83,1.31,1.31,0,0,1-.94.26h-5.64A1.3,1.3,0,0,1,310.57,449.68Zm-2.77-22.13a5.49,5.49,0,0,0-2.69-.65,5.29,5.29,0,0,0-3.1,1,6.15,6.15,0,0,0-2.14,3,15.38,15.38,0,0,0-.76,5.32,15.57,15.57,0,0,0,.76,5.37,5.9,5.9,0,0,0,2.09,2.95,5.23,5.23,0,0,0,3.05.91,5.07,5.07,0,0,0,2.61-.67,5.49,5.49,0,0,0,1.82-1.73,3.87,3.87,0,0,0,.68-2.19V429.46A9.39,9.39,0,0,0,307.8,427.55Z"/><path class="cls-8" d="M332,417.61c0,.87-.47,1.31-1.41,1.31H325a1.09,1.09,0,0,1-.91-.32,1.42,1.42,0,0,1-.23-.88v-5.48c0-.7.29-1.05.88-1.05h6.47q.84,0,.84,1Zm-.11,31.05a1.24,1.24,0,0,1-.31,1,1.57,1.57,0,0,1-1.09.29h-5.48a1.2,1.2,0,0,1-.92-.26,1.25,1.25,0,0,1-.23-.83V423.25c0-.66.28-1,.83-1h6.42c.52,0,.78.3.78.89Z"/><path class="cls-8" d="M337.73,448.87V423.25c0-.66.27-1,.83-1h6.31c.53,0,.79.3.79.89v2.56a.48.48,0,0,0,.15.42c.11.07.26,0,.47-.21a23.73,23.73,0,0,1,2.72-2.19,11.63,11.63,0,0,1,2.87-1.47,10,10,0,0,1,3.23-.52,7.7,7.7,0,0,1,8.25,8.25v18.68a1.11,1.11,0,0,1-1.26,1.25H356.3a1.08,1.08,0,0,1-.76-.23,1.17,1.17,0,0,1-.23-.81V431.23a3.68,3.68,0,0,0-1-2.74,3.86,3.86,0,0,0-2.84-1,5.59,5.59,0,0,0-2,.36,6.88,6.88,0,0,0-1.83,1.07,16.16,16.16,0,0,0-1.88,1.8v17.95c0,.8-.45,1.2-1.36,1.2h-5.58C338.09,449.91,337.73,449.56,337.73,448.87Z"/><path class="cls-8" d="M380.07,449.57a11.54,11.54,0,0,1-4.62.86,8.7,8.7,0,0,1-6.23-2.14,7.16,7.16,0,0,1-2.27-5.48,7.73,7.73,0,0,1,1.82-5.11,11.91,11.91,0,0,1,5.22-3.42,25.76,25.76,0,0,1,8.09-1.33l1.83-.15a1.17,1.17,0,0,0,.57-.16.62.62,0,0,0,.26-.57V431a4.14,4.14,0,0,0-1.15-3.11,4.54,4.54,0,0,0-3.29-1.12,6.75,6.75,0,0,0-3,.71,5.86,5.86,0,0,0-2.42,2.42.89.89,0,0,1-.37.47,1.4,1.4,0,0,1-.78,0l-5.22-1.2a.74.74,0,0,1-.44-.34c-.09-.15,0-.49.18-1a8.61,8.61,0,0,1,4.51-4.57,18.8,18.8,0,0,1,7.91-1.49,17.84,17.84,0,0,1,6.89,1.1,7.56,7.56,0,0,1,3.7,3.05,8.84,8.84,0,0,1,1.15,4.57v18.31a1.43,1.43,0,0,1-.21.89.94.94,0,0,1-.78.26H386a.83.83,0,0,1-.8-.42,2.37,2.37,0,0,1-.29-1l-.11-1.15c-.07-.62-.45-.64-1.14-.05A13.06,13.06,0,0,1,380.07,449.57ZM384,436.71l-1.46.1a13.44,13.44,0,0,0-2.72.4,10.47,10.47,0,0,0-2.45.93,5.7,5.7,0,0,0-1.8,1.52,3.35,3.35,0,0,0-.7,2.11,3.06,3.06,0,0,0,1.09,2.48,4.59,4.59,0,0,0,3,.91,6.23,6.23,0,0,0,2.32-.41,7.16,7.16,0,0,0,1.75-1,7.33,7.33,0,0,0,1.25-1.35,2.46,2.46,0,0,0,.47-1.41V437.6C384.74,437,384.48,436.71,384,436.71Z"/><path class="cls-8" d="M398.46,449.65a1.06,1.06,0,0,1-.26-.78V423.25c0-.66.28-1,.84-1h6.1c.56,0,.84.3.84.89v3.08a.36.36,0,0,0,.23.39c.16.05.32,0,.5-.23a12.88,12.88,0,0,1,2.37-2.46,11.55,11.55,0,0,1,2.74-1.61,7,7,0,0,1,2.66-.58c1.26,0,1.88.3,1.88.89v6.05c0,.56-.26.79-.78.68a10.4,10.4,0,0,0-1.93-.34c-.66-.05-1.24-.08-1.72-.08a5.89,5.89,0,0,0-2,.37,6.13,6.13,0,0,0-1.85,1,6.85,6.85,0,0,0-1.36,1.46,3,3,0,0,0-.52,1.67v15.24c0,.8-.45,1.2-1.36,1.2H399.3A1.14,1.14,0,0,1,398.46,449.65Z"/><path class="cls-8" d="M420.64,458.36a.79.79,0,0,1-.73-.83v-4a.72.72,0,0,1,.31-.57,1.93,1.93,0,0,1,1.2-.26H425a3.55,3.55,0,0,0,1.8-.47,4.33,4.33,0,0,0,1.31-1.15,4.37,4.37,0,0,0,.7-1.46,2,2,0,0,0-.1-1.41l-10-24.68a.9.9,0,0,1,0-.86.88.88,0,0,1,.81-.4h6.58a1.18,1.18,0,0,1,.73.24,1.11,1.11,0,0,1,.41.65l5.8,15.55c.1.31.24.48.41.5s.33-.17.47-.55l5.74-15.55a2.66,2.66,0,0,1,.47-.6,1,1,0,0,1,.68-.24h4.49a.76.76,0,0,1,.73.4.83.83,0,0,1,0,.81l-10.7,26.45a22.39,22.39,0,0,1-2.27,4.41,9.43,9.43,0,0,1-2.58,2.61,8.72,8.72,0,0,1-3.21,1.25,22.92,22.92,0,0,1-4.25.34A12,12,0,0,1,420.64,458.36Z"/><path class="cls-7" d="M459,411.19c.56,0,.84.32.84.94v36.53a1.18,1.18,0,0,1-.34,1,1.59,1.59,0,0,1-1.07.29H451.9a1.2,1.2,0,0,1-.92-.26,1.25,1.25,0,0,1-.23-.83V412.18c0-.66.28-1,.83-1Z"/><path class="cls-7" d="M486.57,418.08a9.67,9.67,0,0,0-4.83-1,8.37,8.37,0,0,0-4.9,1.17,3.58,3.58,0,0,0-1.62,3,3.63,3.63,0,0,0,.31,1.36,3.54,3.54,0,0,0,1.26,1.41,9.12,9.12,0,0,0,2.66,1.2l8.24,2.35a12.53,12.53,0,0,1,7,4.2,11.46,11.46,0,0,1,.32,13,11.92,11.92,0,0,1-5.38,4.15,21.29,21.29,0,0,1-8.29,1.46,26.31,26.31,0,0,1-6.66-.81,18.89,18.89,0,0,1-5.48-2.34,12.81,12.81,0,0,1-3.73-3.58,1.58,1.58,0,0,1-.21-.86,1.23,1.23,0,0,1,.53-.7l4-2.77a1.71,1.71,0,0,1,1-.31,1.12,1.12,0,0,1,.71.41,18.46,18.46,0,0,0,2.47,2.61,7.68,7.68,0,0,0,2.85,1.52,14.05,14.05,0,0,0,3.86.47,11.77,11.77,0,0,0,5.43-1.07,3.53,3.53,0,0,0,2-3.32,3.31,3.31,0,0,0-.42-1.64,3.9,3.9,0,0,0-1.33-1.36,10.66,10.66,0,0,0-2.58-1.12L476,433.32a15.15,15.15,0,0,1-5.16-2.51,10.61,10.61,0,0,1-3.16-3.81,10.54,10.54,0,0,1,.78-10.59,12.64,12.64,0,0,1,5.22-4.2,18.64,18.64,0,0,1,7.85-1.54,21.89,21.89,0,0,1,5.56.68,18.93,18.93,0,0,1,4.67,1.88,11.14,11.14,0,0,1,3.39,2.92,1.91,1.91,0,0,1,.32.6c.06.23,0,.46-.32.7l-4.38,3.24a.69.69,0,0,1-.58.13,2.39,2.39,0,0,1-.73-.5A12.08,12.08,0,0,0,486.57,418.08Z"/></g></svg>