<svg id="Layer_1" data-name="Layer 1" xmlns="http://www.w3.org/2000/svg" viewBox="0 0 600 600"><defs><style>.cls-1{fill:#231f20;fill-rule:evenodd;}</style></defs><path class="cls-1" d="M300.59,132.18a71.51,71.51,0,1,1-71.72,71.51,71.64,71.64,0,0,1,71.72-71.51"/><path class="cls-1" d="M110.8,282.06a41.52,41.52,0,1,1-21.86,54.49,41.69,41.69,0,0,1,21.86-54.49"/><path class="cls-1" d="M487.42,279.39a41.52,41.52,0,1,1-54.64,21.8,41.47,41.47,0,0,1,54.64-21.8"/><path class="cls-1" d="M389.38,409.76c-.66-2.48-1.81-6.87-2.4-9.48-.84-3.76-1.53-7.61-2.19-11.34-1-5.58-1-8.74-1.93-16.48-.57-4.88-.82-10-1.28-15.08a123,123,0,0,1,0-20.5c.2-2.73.17-5.93.45-8.88.39-4,1.3-10.85,1.87-15.31.48-3.81.85-7.64,1.54-11.42.75-4.1,1.9-8.8,3-13.17,1.24-5.12,2.85-12,4.51-17.54,1.59-5.34,3.38-10.63,5.44-15.8,2.24-5.59,5.33-15,8-17.74a10,10,0,0,1,3.17-2.68,10.52,10.52,0,0,1,3.5-1.06,8,8,0,0,1,3,.13,10.07,10.07,0,0,1,2.64.68c.94.37,1.83.84,2.6,1.22a9.63,9.63,0,0,1,3.49,2.84,17,17,0,0,1,2.4,5.39,7.84,7.84,0,0,1-.45,4.17c-1.25,3.44-5.51,11.91-7.07,16.45a65.45,65.45,0,0,0-2.27,10.77c-.7,4.24-1.64,9.94-1.91,14.63a75.49,75.49,0,0,0,.24,13.53,101.41,101.41,0,0,0,3,13.37c1.19,4.54,2.14,9.47,4.14,13.86a95.51,95.51,0,0,0,9.55,16.16,49.27,49.27,0,0,0,10.28,9.76,50.86,50.86,0,0,0,12.31,6.61,50.92,50.92,0,0,0,25.76,1.94,102.3,102.3,0,0,0,15.56-4.09,78.46,78.46,0,0,0,14.58-6.52A99.26,99.26,0,0,0,527.16,342,84.47,84.47,0,0,0,541,325.46c4.36-7.15,9-22,12.31-26.3a8.16,8.16,0,0,1,4.43-2.47,12.52,12.52,0,0,1,5.53-.32A11.76,11.76,0,0,1,573.35,305a10.64,10.64,0,0,1,.25,6.48c-1.62,4.79-6.74,15.92-9.92,22.28-2.73,5.47-5.95,10.69-9.18,15.88-4,6.46-9.34,15.64-14.87,22.85-5.88,7.67-12.76,16.08-20.4,23.18-4.75,4.4-9.86,9.06-16.84,15-7.57,6.43-16.86,13.74-21.47,17-3,2.12-6.21,4.4-9.47,6.36-2.26,1.36-6.53,3.66-9.5,5.24a355.49,355.49,0,0,0-72.57-29.51Z"/><path class="cls-1" d="M135.2,441.29c-2-1.12-4.33-2.41-5.87-3.33-3.31-2-6.58-4.14-9.75-6.24-4.73-3.13-7.07-5.28-13.3-10-3.93-3-7.86-6.34-11.83-9.48a122.14,122.14,0,0,1-14.89-14.14c-1.85-2-4.19-4.2-6.14-6.44-2.66-3.06-7-8.43-9.83-11.91-2.43-3-5-5.89-7.23-9-2.46-3.37-5.08-7.44-7.52-11.22-2.86-4.43-6.74-10.33-9.63-15.36-2.78-4.83-5.39-9.77-7.72-14.83-2.52-5.47-7.25-14.21-7.39-18a10.26,10.26,0,0,1,.24-4.14A10.43,10.43,0,0,1,26,304a8,8,0,0,1,2.13-2,10.55,10.55,0,0,1,2.32-1.45c.91-.41,1.86-.73,2.68-1a9.58,9.58,0,0,1,4.47-.57,17.17,17.17,0,0,1,5.56,2,7.9,7.9,0,0,1,2.72,3.2c1.64,3.28,4.85,12.2,7.07,16.45a66,66,0,0,0,6.26,9.08c2.59,3.42,6.09,8,9.3,11.46a76.1,76.1,0,0,0,10,9.16,102.17,102.17,0,0,0,11.78,7.05c4.12,2.26,8.36,5,12.92,6.56a96.48,96.48,0,0,0,18.33,4.25,49.5,49.5,0,0,0,14.18-.69,49.32,49.32,0,0,0,32.46-21.59,102,102,0,0,0,7.76-14.06,77.67,77.67,0,0,0,5.32-15,99.26,99.26,0,0,0,2.44-20.17,84.43,84.43,0,0,0-2.48-21.44c-2.18-8.07-9.74-21.63-10.61-27a8.11,8.11,0,0,1,1.26-4.9,12.4,12.4,0,0,1,3.58-4.21,11.79,11.79,0,0,1,13.24-1.3,10.63,10.63,0,0,1,4.88,4.29c2.37,4.48,6.92,15.85,9.34,22.53,2.09,5.75,3.66,11.67,5.21,17.58,1.92,7.35,4.91,17.53,6.33,26.5,1.52,9.53,2.88,20.29,2.77,30.71-.07,6.46-.22,13.37-.73,22.5-.54,9.9-1.65,21.65-2.48,27.2-.55,3.65-1.08,7.52-1.91,11.23-.56,2.52-1.8,7.07-2.69,10.3a406.3,406.3,0,0,0-74.2,30.75Z"/><path class="cls-1" d="M233.42,404.21c-2.79-3.55-7.11-9.12-9.61-12.58-1.86-2.56-3.68-5.18-5.46-7.82,1.28-11.66,4.49-47.26-.12-77.78-4.31-28.5-21.36-65.29-21.61-65.8-2.82-5.56-11.59-8.6-18.55-6.38-6.11,2-10.55,7.18-10.55,14.88-.22,7.54,10.53,22.64,12.42,33.57,1.47,8.45.16,23.8-.62,31.29-3.37-7.65-5.67-14.21-7.23-18.72s-3.78-9.49-5.34-14.35c-2.13-6.65-5.33-18.08-7.46-25.52-1.83-6.37-3.86-12.69-5.33-19.14-1.6-7-3-15.22-4.27-22.87-1.51-9-3.64-20.91-4.8-30.83-1.11-9.53-1.88-19.12-2.13-28.71-.27-10.37-1.81-27.43.53-33.5.83-2.14,1.26-4.2,3.2-6.38a18.11,18.11,0,0,1,4.84-4c2.27-1.37,2.82-1.23,4.76-1.8a17.91,17.91,0,0,1,4.65-.71c1.74,0,3.46.09,4.95.18a16.6,16.6,0,0,1,7.46,2.13,29.19,29.19,0,0,1,7.47,6.91,13.66,13.66,0,0,1,2.13,6.91c.36,6.29-.62,22.6,0,30.84.48,6.31,2.21,12.47,3.73,18.61,1.78,7.17,4.18,16.83,6.93,24.45a131.6,131.6,0,0,0,9.6,21.27c3.91,6.74,9,12.93,13.86,19.14,5,6.38,9.84,13.55,16,19.14A165.87,165.87,0,0,0,259,275.73a85.54,85.54,0,0,0,22.92,8.51,88,88,0,0,0,24,2.12,88.89,88.89,0,0,0,22.93-4.78A88,88,0,0,0,348,272a176.24,176.24,0,0,0,21.86-17c6.76-6.21,13.32-12.76,18.66-20.21,6.05-8.42,13-19.57,17.6-30.3,4.71-11,8.91-23.36,10.66-35.62,2.05-14.27-.69-40.86,1.6-50,.73-2.88,3.07-5.09,5.34-6.91a21.44,21.44,0,0,1,8.53-4.26c3.37-.71,8.08-1.15,11.73,0a25,25,0,0,1,10.13,6.92c2.46,2.8,4.49,6.38,4.8,10.1.71,8.68.17,29.77-.54,42-.61,10.51-2.16,21-3.73,31.37-1.95,12.93-4.15,31.08-8,46.25-4.08,16.13-9.26,34.1-16.53,50.51-2.62,5.93-5.39,12.07-8.62,18.95-1.32-7.14-2.57-15.59-2.39-21.28-.48-25.19,10.19-41.42,10.61-46.36,1-4.52-3.46-14.35-13.14-15.32-9.42-1-13.12,4.84-15.93,10.4-5.14,10.18-14.57,35.84-20,65.7-4.86,26.59-.54,78.77-.54,78.77l-12.76,18.58a340.1,340.1,0,0,0-71.24-7.48,286.94,286.94,0,0,0-62.69,7.38Z"/><path class="cls-1" d="M83,492.65A528,528,0,0,1,184.33,448.5c36.81-11.42,82.31-16.56,111.1-16.46,31,.11,76.35,2.82,118.31,15.7,56.93,17.47,107.59,46.51,107.59,46.51s-39.31-35.48-99-59.32c-40-16-72.11-23.21-126.94-23.62-47.45-.36-81.23,9.77-123,26.53C117,460,83,492.65,83,492.65"/></svg>